<svg xmlns="http://www.w3.org/2000/svg" viewBox="0 0 96 51"><polygon points="0 51 0 0 73.846 0 96 24.785 73.846 51 0 51" fill="#50b848" fill-rule="evenodd"/><path d="M51.92969,21.88672a4.05661,4.05661,0,0,0,.58593-.03516,1.427,1.427,0,0,0,.375-.09961.46341.46341,0,0,0,.19922-.15234.361.361,0,0,0,.0586-.20508V17.42188H56.793a.36967.36967,0,0,0,.19922-.0586.48377.48377,0,0,0,.16406-.19336,1.18088,1.18088,0,0,0,.10547-.35742,4.28566,4.28566,0,0,0,0-1.0957,1.32812,1.32812,0,0,0-.09961-.36328.4666.4666,0,0,0-.15234-.19336.32328.32328,0,0,0-.18165-.0586H53.14844V11.14062a.41992.41992,0,0,0-.0586-.21679.42728.42728,0,0,0-.19922-.16406,1.42665,1.42665,0,0,0-.375-.09961,4.89983,4.89983,0,0,0-1.17187,0,1.42687,1.42687,0,0,0-.375.09961.46665.46665,0,0,0-.20508.16406.39126.39126,0,0,0-.06445.21679v3.96094h-3.668a.31445.31445,0,0,0-.1875.0586.49257.49257,0,0,0-.14648.19336,1.32777,1.32777,0,0,0-.09961.36328,3.64161,3.64161,0,0,0-.03516.54492,3.10842,3.10842,0,0,0,.041.55078,1.28884,1.28884,0,0,0,.11132.35742.50784.50784,0,0,0,.15821.19336.3413.3413,0,0,0,.19336.0586h3.63281v3.97265a.33744.33744,0,0,0,.06445.20508.5119.5119,0,0,0,.20508.15234,1.42726,1.42726,0,0,0,.375.09961A4.05676,4.05676,0,0,0,51.92969,21.88672Zm-11.95313,0a4.05676,4.05676,0,0,0,.58594-.03516,1.42726,1.42726,0,0,0,.375-.09961.46347.46347,0,0,0,.19922-.15234.361.361,0,0,0,.05859-.20508V17.42188h3.64453a.36964.36964,0,0,0,.19922-.0586.48377.48377,0,0,0,.16406-.19336,1.18032,1.18032,0,0,0,.10547-.35742,4.28566,4.28566,0,0,0,0-1.0957,1.32777,1.32777,0,0,0-.09961-.36328.46652.46652,0,0,0-.15234-.19336.32322.32322,0,0,0-.18164-.0586H41.19531V11.14062a.42.42,0,0,0-.05859-.21679.42733.42733,0,0,0-.19922-.16406,1.42687,1.42687,0,0,0-.375-.09961,4.89991,4.89991,0,0,0-1.17188,0,1.42709,1.42709,0,0,0-.375.09961.46668.46668,0,0,0-.20507.16406.39127.39127,0,0,0-.06446.21679v3.96094h-3.668a.31445.31445,0,0,0-.1875.0586.49276.49276,0,0,0-.14648.19336,1.32812,1.32812,0,0,0-.09961.36328,3.64174,3.64174,0,0,0-.03515.54492,3.10948,3.10948,0,0,0,.041.55078,1.28848,1.28848,0,0,0,.11133.35742.50783.50783,0,0,0,.1582.19336.34134.34134,0,0,0,.19336.0586h3.63281v3.97265a.33745.33745,0,0,0,.06446.20508.51193.51193,0,0,0,.20507.15234,1.42748,1.42748,0,0,0,.375.09961A4.057,4.057,0,0,0,39.97656,21.88672Z" fill="#fff"/><path d="M22.7412,29.06049H14.02986l4.3438-13.05513h.02374ZM29.90965,41q1.16309,0,1.82772-.05934a1.54519,1.54519,0,0,0,.92572-.30858.81661.81661,0,0,0,.1899-.7477,8.283,8.283,0,0,0-.356-1.353L23.0023,11.30551a2.2968,2.2968,0,0,0-.34418-.71209,1.23282,1.23282,0,0,0-.66463-.39166,5.93884,5.93884,0,0,0-1.29364-.16616Q19.86906,10,18.46861,10l-.29523.00056q-1.00731.00389-1.65117.035a4.77662,4.77662,0,0,0-1.15123.16616,1.17712,1.17712,0,0,0-.60528.37979,2.38757,2.38757,0,0,0-.33231.65275L4.96248,38.48392a7.73529,7.73529,0,0,0-.35605,1.32925.92764.92764,0,0,0,.16616.77144,1.3034,1.3034,0,0,0,.85452.34418A15.79889,15.79889,0,0,0,7.33614,41q1.02068,0,1.6497-.04747a3.63138,3.63138,0,0,0,.9732-.178,1.01707,1.01707,0,0,0,.49847-.35605,1.915,1.915,0,0,0,.24923-.55781l1.9464-6.00536h11.536l2.06508,6.17152a1.62516,1.62516,0,0,0,.23737.49847.94081.94081,0,0,0,.49847.29671,4.66289,4.66289,0,0,0,1.03254.14242Q28.69907,41,29.90965,41Z" fill="#fff"/></svg>