<svg xmlns="http://www.w3.org/2000/svg" viewBox="0 0 96 51"><polygon points="0 51 0 0 73.846 0 96 24.785 73.846 51 0 51" fill="#f36f21" fill-rule="evenodd"/><path d="M19.23847,41a15.89357,15.89357,0,0,0,2.93526-.25524,15.5215,15.5215,0,0,0,2.41317-.6381,11.60528,11.60528,0,0,0,1.78668-.80052,4.71758,4.71758,0,0,0,.98615-.68451A2.4386,2.4386,0,0,0,27.731,38.146a1.97581,1.97581,0,0,0,.18563-.49888A4.77619,4.77619,0,0,0,28.021,36.951q.03481-.40606.03481-.98615,0-.83534-.04641-1.33421a3.63459,3.63459,0,0,0-.13922-.77732.69773.69773,0,0,0-.232-.37125.65972.65972,0,0,0-.37125-.09282,1.7265,1.7265,0,0,0-.84693.37126q-.54529.37125-1.39222.83533a11.81163,11.81163,0,0,1-2.03031.84693,9.16006,9.16006,0,0,1-2.80764.38286,8.045,8.045,0,0,1-3.2137-.6149,6.29093,6.29093,0,0,1-2.43637-1.86789,8.84422,8.84422,0,0,1-1.55465-3.19049,17.03414,17.03414,0,0,1-.54528-4.58271,16.95548,16.95548,0,0,1,.51048-4.33907,9.80138,9.80138,0,0,1,1.49663-3.28331A6.60609,6.60609,0,0,1,20.0274,15.128a8.56731,8.56731,0,0,1,2.796.40607,11.23553,11.23553,0,0,1,2.01871.90494,14.35959,14.35959,0,0,1,1.38061.90494,1.6076,1.6076,0,0,0,.88174.40606.55434.55434,0,0,0,.37126-.13922,1.08275,1.08275,0,0,0,.27844-.44087,3.05153,3.05153,0,0,0,.16243-.78892q.04639-.48728.0464-1.18339,0-.64969-.0348-1.09056a5.92929,5.92929,0,0,0-.10442-.76572,1.94463,1.94463,0,0,0-.18563-.53369,2.60482,2.60482,0,0,0-.42926-.52208,5.31828,5.31828,0,0,0-1.10217-.75411,10.75076,10.75076,0,0,0-1.77508-.77732,14.72988,14.72988,0,0,0-2.14633-.54529A13.60137,13.60137,0,0,0,19.77216,10a14.84524,14.84524,0,0,0-5.65008,1.04416A11.94547,11.94547,0,0,0,9.725,14.107a14.15737,14.15737,0,0,0-2.854,4.98877A20.87146,20.87146,0,0,0,5.85,25.89446a21.17661,21.17661,0,0,0,.92814,6.58982,12.706,12.706,0,0,0,2.66842,4.72193,10.99814,10.99814,0,0,0,4.22305,2.84244A15.462,15.462,0,0,0,19.23847,41Z" fill="#fff"/></svg>