<svg xmlns="http://www.w3.org/2000/svg" viewBox="0 0 96 51"><polygon points="0 51 0 0 73.846 0 96 24.785 73.846 51 0 51" fill="#ed1c24" fill-rule="evenodd"/><path d="M16.85873,36.017H13.57666V14.93509h3.18625a11.85232,11.85232,0,0,1,4.68354.77859,7.66483,7.66483,0,0,1,2.92272,2.16808,8.72144,8.72144,0,0,1,1.653,3.28207,15.55581,15.55581,0,0,1,.51507,4.0966,16.839,16.839,0,0,1-.58694,4.69552,8.73724,8.73724,0,0,1-1.7728,3.36592,7.29077,7.29077,0,0,1-2.95865,2.02434A12.3872,12.3872,0,0,1,16.85873,36.017ZM16.57125,41a24.79242,24.79242,0,0,0,7.10317-.89838,12.82341,12.82341,0,0,0,5.06685-2.81491,12.38565,12.38565,0,0,0,3.19822-4.94707,21.20336,21.20336,0,0,0,1.114-7.29482,18.77488,18.77488,0,0,0-1.03014-6.49227,12.33165,12.33165,0,0,0-3.00657-4.7075,12.73872,12.73872,0,0,0-4.86322-2.8748A22.23859,22.23859,0,0,0,17.12226,10H9.16862a1.95863,1.95863,0,0,0-1.32959.46716A1.91521,1.91521,0,0,0,7.3,11.98841V39.01159a1.91521,1.91521,0,0,0,.539,1.52125A1.95863,1.95863,0,0,0,9.16862,41Z" fill="#fff"/></svg>