<svg xmlns="http://www.w3.org/2000/svg" viewBox="0 0 96 51"><polygon points="0 51 0 0 73.846 0 96 24.785 73.846 51 0 51" fill="#fdb813" fill-rule="evenodd"/><path d="M18.03261,36.1847H13.48083V27.36862h3.73725a10.366,10.366,0,0,1,2.80294.31144,4.86052,4.86052,0,0,1,1.7728.8864,3.67928,3.67928,0,0,1,1.05409,1.42543,4.9133,4.9133,0,0,1,.35935,1.92851,4.31779,4.31779,0,0,1-.37132,1.83269,3.73044,3.73044,0,0,1-1.03014,1.34158,4.52192,4.52192,0,0,1-1.55719.81453A7.65415,7.65415,0,0,1,18.03261,36.1847ZM17.00247,22.76893H13.48083V14.71947h3.18625a8.3566,8.3566,0,0,1,2.33578.26353,3.95807,3.95807,0,0,1,1.44938.75464,3.0304,3.0304,0,0,1,.86244,1.23377,4.616,4.616,0,0,1,.28748,1.677,4.79738,4.79738,0,0,1-.26352,1.59312,3.59436,3.59436,0,0,1-.80255,1.31762,3.76589,3.76589,0,0,1-1.35356.8864A6.034,6.034,0,0,1,17.00247,22.76893ZM17.40974,41a23.03,23.03,0,0,0,3.38987-.22759,15.16386,15.16386,0,0,0,2.86283-.70672,11.19015,11.19015,0,0,0,2.45557-1.2218,8.11822,8.11822,0,0,0,1.91653-1.77279,8.01111,8.01111,0,0,0,1.25773-2.37172,9.28156,9.28156,0,0,0,.45518-2.99459,8.02568,8.02568,0,0,0-.47913-2.85085,7.19209,7.19209,0,0,0-1.30565-2.216,6.88046,6.88046,0,0,0-1.94049-1.5452,8.19437,8.19437,0,0,0-2.43161-.83849,6.87718,6.87718,0,0,0,1.83269-1.00618,6.23621,6.23621,0,0,0,1.35356-1.43741,6.35406,6.35406,0,0,0,.83848-1.80873,7.5987,7.5987,0,0,0,.28748-2.12017,7.9504,7.9504,0,0,0-.7187-3.49768,6.41753,6.41753,0,0,0-2.07226-2.45556,9.49866,9.49866,0,0,0-3.33-1.44939A20.81436,20.81436,0,0,0,16.95456,10H9.16862a1.95863,1.95863,0,0,0-1.32959.46716A1.91521,1.91521,0,0,0,7.3,11.98841V39.01159a1.91521,1.91521,0,0,0,.539,1.52125A1.95863,1.95863,0,0,0,9.16862,41Z" fill="#fff"/></svg>