<svg xmlns="http://www.w3.org/2000/svg" viewBox="0 0 96 51"><polygon points="0 51 0 0 73.846 0 96 24.785 73.846 51 0 51" fill="#fff200" fill-rule="evenodd"/><path d="M22.7412,29.06049H14.02986l4.3438-13.05513h.02374ZM29.90965,41q1.16309,0,1.82772-.05934a1.54519,1.54519,0,0,0,.92572-.30858.81661.81661,0,0,0,.1899-.7477,8.283,8.283,0,0,0-.356-1.353L23.0023,11.30551a2.2968,2.2968,0,0,0-.34418-.71209,1.23282,1.23282,0,0,0-.66463-.39166,5.93884,5.93884,0,0,0-1.29364-.16616Q19.86906,10,18.46861,10l-.29523.00056q-1.00731.00389-1.65117.035a4.77662,4.77662,0,0,0-1.15123.16616,1.17712,1.17712,0,0,0-.60528.37979,2.38757,2.38757,0,0,0-.33231.65275L4.96248,38.48392a7.73529,7.73529,0,0,0-.35605,1.32925.92764.92764,0,0,0,.16616.77144,1.3034,1.3034,0,0,0,.85452.34418A15.79889,15.79889,0,0,0,7.33614,41q1.02068,0,1.6497-.04747a3.63138,3.63138,0,0,0,.9732-.178,1.01707,1.01707,0,0,0,.49847-.35605,1.915,1.915,0,0,0,.24923-.55781l1.9464-6.00536h11.536l2.06508,6.17152a1.62516,1.62516,0,0,0,.23737.49847.94081.94081,0,0,0,.49847.29671,4.66289,4.66289,0,0,0,1.03254.14242Q28.69907,41,29.90965,41Z" fill="#fff"/></svg>