<svg xmlns="http://www.w3.org/2000/svg" viewBox="0 0 96 51"><polygon points="24 0 71.78 0 96 25.5 71.78 51 24 51 24 0" fill="#ed1c24" fill-rule="evenodd"/><rect width="24" height="51" fill="#fff"/><path d="M50.912,40.42682q1.19418,0,2.37709-.11266t2.34329-.338q1.16037-.22532,2.2419-.54076t1.81379-.60835a1.68749,1.68749,0,0,0,.96886-.79988,2.771,2.771,0,0,0,.23659-1.18291V25.2405a2.60429,2.60429,0,0,0-.11266-.79987,1.69892,1.69892,0,0,0-.32671-.59709,1.39128,1.39128,0,0,0-.4957-.37177,1.5797,1.5797,0,0,0-.64215-.12392H49.47a.56758.56758,0,0,0-.36051.12392.96443.96443,0,0,0-.27038.383,2.61721,2.61721,0,0,0-.169.68721,8.32518,8.32518,0,0,0-.05632,1.059,4.6525,4.6525,0,0,0,.22531,1.72367q.22532.507.63089.507h5.52025v6.75949a7.20138,7.20138,0,0,1-1.80253.676,8.62624,8.62624,0,0,1-1.96026.22532A10.13716,10.13716,0,0,1,47.521,34.839a7.66116,7.66116,0,0,1-2.87278-1.93772A8.9345,8.9345,0,0,1,42.78933,29.713a13.34866,13.34866,0,0,1-.66468-4.40493,12.6025,12.6025,0,0,1,.65341-4.15709,9.23665,9.23665,0,0,1,1.87013-3.222,8.32069,8.32069,0,0,1,2.92911-2.07291,9.64877,9.64877,0,0,1,3.83038-.73228,13.38914,13.38914,0,0,1,3.48113.40557,18.65934,18.65934,0,0,1,2.57988.87873,14.06261,14.06261,0,0,1,1.73493.87874,2.19838,2.19838,0,0,0,.94633.40557.556.556,0,0,0,.34924-.11266.84946.84946,0,0,0,.24785-.39431,3.53282,3.53282,0,0,0,.15772-.75481,9.697,9.697,0,0,0,.05633-1.12658,7.97683,7.97683,0,0,0-.13519-1.70114,1.87226,1.87226,0,0,0-.43937-.89,4.844,4.844,0,0,0-1.07025-.74354,10.659,10.659,0,0,0-1.92645-.79987,19.4673,19.4673,0,0,0-2.71507-.63089,21.05337,21.05337,0,0,0-3.44734-.25911,17.58619,17.58619,0,0,0-6.25252,1.059,13.252,13.252,0,0,0-4.788,3.053,13.61949,13.61949,0,0,0-3.06431,4.8443,18.02706,18.02706,0,0,0-1.08151,6.43278A17.78683,17.78683,0,0,0,37.055,31.87607a12.275,12.275,0,0,0,7.60443,7.54809A18.23155,18.23155,0,0,0,50.912,40.42682Z" fill="#fff"/><path d="M11.37156,7.33054h-.00945L9.67239,12.39441h3.38889Zm.89551-2.31572a2.26345,2.26345,0,0,1,.50246.06331.48376.48376,0,0,1,.25933.15223.941.941,0,0,1,.13372.27616l3.69279,10.56287a3.21262,3.21262,0,0,1,.13912.52539.31927.31927,0,0,1-.07429.28963.60612.60612,0,0,1-.36063.11989c-.17154.01482-.40926.02291-.71047.02291-.31336,0-.55918-.00539-.73477-.01348a1.8767,1.8767,0,0,1-.40116-.05523.36384.36384,0,0,1-.19315-.11585.59639.59639,0,0,1-.09319-.19264l-.80366-2.3952h-4.487l-.75639,2.33054a.70822.70822,0,0,1-.09725.21554.3947.3947,0,0,1-.1945.13875,1.40888,1.40888,0,0,1-.37819.06871c-.16343.01212-.37684.01886-.64158.01886a5.99851,5.99851,0,0,1-.66454-.02829.49559.49559,0,0,1-.33227-.13337.35431.35431,0,0,1-.06483-.29906,3.11991,3.11991,0,0,1,.13777-.516L9.82907,5.47958a.88661.88661,0,0,1,.12967-.25326.45178.45178,0,0,1,.235-.14819,1.8208,1.8208,0,0,1,.44843-.06331q.22854-.01133.57568-.01418L11.39858,5Q11.94358,5,12.26707,5.01482Zm-.76584,14.04925a.75542.75542,0,0,1,.35928.08218,1.35548,1.35548,0,0,1,.31471.23979l3.03636,3.02835a.56144.56144,0,0,1,.0959.15627.29411.29411,0,0,1-.00406.198,1.002,1.002,0,0,1-.16208.28155,4.491,4.491,0,0,1-.36468.41357,4.36609,4.36609,0,0,1-.43358.392,1.26737,1.26737,0,0,1-.29985.17917.31182.31182,0,0,1-.21206.01482.44556.44556,0,0,1-.16208-.10642c-.72667-.718-.39305-.582-1.05084-1.30672V31.292a.20785.20785,0,0,1-.05538.13741.42443.42443,0,0,1-.181.11046,1.58918,1.58918,0,0,1-.34172.07409,5.16036,5.16036,0,0,1-1.07921,0,1.60839,1.60839,0,0,1-.34172-.07409.42437.42437,0,0,1-.181-.11046.20785.20785,0,0,1-.05538-.13741V22.63667c-.65779.72476-.32417.5887-1.05084,1.30672a.45236.45236,0,0,1-.16073.10642.31534.31534,0,0,1-.21341-.01482,1.2674,1.2674,0,0,1-.29986-.17917,4.69443,4.69443,0,0,1-.43357-.392,4.491,4.491,0,0,1-.36468-.41357,1.002,1.002,0,0,1-.16209-.28155.32639.32639,0,0,1-.00945-.198.40743.40743,0,0,1,.10265-.15627L10.82723,19.386a1.51579,1.51579,0,0,1,.29446-.23036A.74661.74661,0,0,1,11.50123,19.06407Zm1.11567,14.615a8.70933,8.70933,0,0,1,1.41282.10508,8.13475,8.13475,0,0,1,1.113.25865,4.39806,4.39806,0,0,1,.78881.326,2.01235,2.01235,0,0,1,.439.30445.76889.76889,0,0,1,.17964.36373,3.1902,3.1902,0,0,1,.05538.69512,3.7933,3.7933,0,0,1-.023.46072,1.36531,1.36531,0,0,1-.06483.30849.34089.34089,0,0,1-.10131.16166.23307.23307,0,0,1-.14317.0458.90251.90251,0,0,1-.38765-.1657,5.8714,5.8714,0,0,0-.71046-.35968,7.80549,7.80549,0,0,0-1.05759-.35968,5.50049,5.50049,0,0,0-1.42633-.1657,3.96521,3.96521,0,0,0-1.5695.30041,3.38652,3.38652,0,0,0-1.20077.84735A3.77159,3.77159,0,0,0,9.15508,38.122a5.1466,5.1466,0,0,0-.26744,1.69874,5.46252,5.46252,0,0,0,.27149,1.80112,3.67335,3.67335,0,0,0,.76179,1.30267,3.13588,3.13588,0,0,0,1.1778.79212,4.16288,4.16288,0,0,0,1.51818.26673,3.58689,3.58689,0,0,0,.80366-.0916,2.99424,2.99424,0,0,0,.73883-.27617v-2.763H11.897c-.11075,0-.1972-.0687-.258-.20745a1.879,1.879,0,0,1-.0932-.70456,3.49238,3.49238,0,0,1,.023-.43243,1.09315,1.09315,0,0,1,.07024-.28155.38472.38472,0,0,1,.11076-.15626.23165.23165,0,0,1,.14722-.04985H15.9315a.65124.65124,0,0,1,.26338.04985.56616.56616,0,0,1,.2026.15222.679.679,0,0,1,.13507.24383,1.10134,1.10134,0,0,1,.04593.32736v4.74191a1.12429,1.12429,0,0,1-.09725.48362.69439.69439,0,0,1-.39711.32735q-.29985.11922-.74288.24787-.4437.12933-.91847.22093-.47612.093-.96034.13876-.48624.04647-.97385.0458a7.47806,7.47806,0,0,1-2.56226-.40953,5.02611,5.02611,0,0,1-3.11739-3.08493,7.25886,7.25886,0,0,1-.41466-2.53666,7.341,7.341,0,0,1,.443-2.6296A5.57453,5.57453,0,0,1,8.09344,35.359a5.43425,5.43425,0,0,1,1.9612-1.24744A7.23441,7.23441,0,0,1,12.6169,33.67912Z" fill="#010101" fill-rule="evenodd"/><path d="M51.22742,10.70584a20.63235,20.63235,0,0,1,3.37725.25331,19.05167,19.05167,0,0,1,2.65508.61636,10.25084,10.25084,0,0,1,1.84855.766,4.52709,4.52709,0,0,1,.97134.66731,1.46383,1.46383,0,0,1,.33126.69171,7.63818,7.63818,0,0,1,.12385,1.60349,9.28621,9.28621,0,0,1-.05334,1.07619,3.149,3.149,0,0,1-.13551.66079.5221.5221,0,0,1-.10665.20079.13413.13413,0,0,1-.0893.02425,1.751,1.751,0,0,1-.58766-.26065l-.13383-.08082a14.45725,14.45725,0,0,0-1.78889-.90709,19.07178,19.07178,0,0,0-2.63936-.89967,13.806,13.806,0,0,0-3.59253-.42038,10.0725,10.0725,0,0,0-3.998.76662,8.747,8.747,0,0,0-3.07719,2.17839,9.66145,9.66145,0,0,0-1.95715,3.36867,13.02588,13.02588,0,0,0-.677,4.297,13.76748,13.76748,0,0,0,.68851,4.54545,9.35767,9.35767,0,0,0,1.94915,3.338,8.08737,8.08737,0,0,0,3.03035,2.04471,10.5614,10.5614,0,0,0,3.8611.68245,9.05289,9.05289,0,0,0,2.05683-.23639,7.62755,7.62755,0,0,0,1.90869-.71616l.2236-.12087v-7.44H49.47l-.06443-.00655c-.02917-.00634-.09883-.07165-.17687-.24722a4.37888,4.37888,0,0,1-.18857-1.55052,7.92409,7.92409,0,0,1,.05269-1.00337,2.2272,2.2272,0,0,1,.13727-.57284.571.571,0,0,1,.1428-.21779.14241.14241,0,0,1,.09711-.03283h9.84632l.15651.00733a1.041,1.041,0,0,1,.31394.08049.966.966,0,0,1,.34474.2602,1.27521,1.27521,0,0,1,.24362.44932,2.18571,2.18571,0,0,1,.09207.669V36.84429l-.00639.20793a2.19558,2.19558,0,0,1-.1902.79469,1.2859,1.2859,0,0,1-.74086.58432q-.30479.12192-.67444.24868l-.52152.17107-.57887.17517q-1.06245.30987-2.20379.53152-1.14007.22137-2.30244.33208-1.16274.11073-2.33667.11073a17.81026,17.81026,0,0,1-6.107-.977A11.84943,11.84943,0,0,1,37.45483,31.728a17.36538,17.36538,0,0,1-.98739-6.05939,17.605,17.605,0,0,1,1.05379-6.28153,13.19425,13.19425,0,0,1,2.968-4.69494,12.8265,12.8265,0,0,1,4.63622-2.95478A17.16292,17.16292,0,0,1,51.22742,10.70584Zm0-.85268a18.00942,18.00942,0,0,0-6.4031,1.08646,13.67769,13.67769,0,0,0-4.93971,3.15129A14.04471,14.04471,0,0,0,36.724,19.08457a18.44919,18.44919,0,0,0-1.10925,6.584,18.20837,18.20837,0,0,0,1.04046,6.35554,12.70076,12.70076,0,0,0,7.85866,7.80074A18.65312,18.65312,0,0,0,50.912,40.85316q1.2144,0,2.41751-.11458,1.20343-.11461,2.38413-.34387,1.17942-.229,2.28-.55.31426-.09165.60014-.18166l.54344-.1784q.38635-.13262.70918-.26173a2.09648,2.09648,0,0,0,1.19686-1.01542,3.05893,3.05893,0,0,0,.26922-1.11668l.00717-.23383.00019-11.61649a3.0244,3.0244,0,0,0-.13324-.93076,2.12343,2.12343,0,0,0-.4098-.74486,1.81689,1.81689,0,0,0-.64666-.48334,1.91009,1.91009,0,0,0-.59993-.15054l-.1951-.00908L49.47,22.92151a.99373.99373,0,0,0-.62391.215,1.37527,1.37527,0,0,0-.398.54828,3.01509,3.01509,0,0,0-.2007.80159,8.72771,8.72771,0,0,0-.06,1.11461,4.96069,4.96069,0,0,0,.26206,1.89682,1.15355,1.15355,0,0,0,.85231.74651l.134.01227,5.128.0004v6.071l.2237-.112a6.77539,6.77539,0,0,1-1.69637.63574,8.19952,8.19952,0,0,1-1.86369.21424,9.71325,9.71325,0,0,1-3.5518-.62438,7.235,7.235,0,0,1-2.71521-1.83074,8.51154,8.51154,0,0,1-1.76857-3.03843A12.93016,12.93016,0,0,1,42.551,25.3081a12.17923,12.17923,0,0,1,.62981-4.01722,8.812,8.812,0,0,1,1.78309-3.07537,7.8946,7.8946,0,0,1,2.781-1.96743,9.22515,9.22515,0,0,1,3.66275-.69794,12.97279,12.97279,0,0,1,3.36974.39076,18.24564,18.24564,0,0,1,2.52038.85779,15.04382,15.04382,0,0,1,1.49377.7381l.18722.11228a2.44984,2.44984,0,0,0,1.17116.46967.98106.98106,0,0,0,.60918-.20107,1.245,1.245,0,0,0,.38905-.58782,3.92428,3.92428,0,0,0,.17993-.84882,10.10683,10.10683,0,0,0,.05932-1.177,8.32593,8.32593,0,0,0-.14653-1.79878,2.28558,2.28558,0,0,0-.54747-1.08829,5.1821,5.1821,0,0,0-1.16917-.81978,11.06684,11.06684,0,0,0-2.00435-.83371,19.88335,19.88335,0,0,0-2.77506-.64541A21.47354,21.47354,0,0,0,51.22742,9.85316Z" fill="#010101"/><path d="M72.47427.70833H.715V50.29167H72.47284L95.0357,25.49858ZM72.79452,0,96,25.49946,72.79452,51H0V0Z" fill="#010101"/></svg>