<svg xmlns="http://www.w3.org/2000/svg" viewBox="0 0 96 51"><polygon points="24 0 71.78 0 96 25.5 71.78 51 24 51 24 0" fill="#50b848" fill-rule="evenodd"/><rect width="24" height="51" fill="#fff"/><path d="M46.66835,14.59147H43.52447l-.09762.01109a.4213.4213,0,0,0-.32815.40876V22.844l.01125.09627a.42473.42473,0,0,0,.41452.32358h3.47427l.39509-.00693a5.86868,5.86868,0,0,0,1.91337-.33857,4.1441,4.1441,0,0,0,1.4851-.96108,3.92272,3.92272,0,0,0,.88651-1.43513,5.00947,5.00947,0,0,0,.28439-1.68854,4.84941,4.84941,0,0,0-.31308-1.78214,3.36948,3.36948,0,0,0-.97009-1.3683,4.36866,4.36866,0,0,0-1.58442-.81687A8.735,8.735,0,0,0,46.66835,14.59147Zm.54328,12.30663H43.52447l-.09762.01109a.42129.42129,0,0,0-.32815.40876v8.57668l.01125.09627a.42473.42473,0,0,0,.41452.32358h4.491l.44171-.00785a7.46616,7.46616,0,0,0,1.86942-.27749,4.9415,4.9415,0,0,0,1.6809-.86887,4.0729,4.0729,0,0,0,1.13376-1.45335,4.57562,4.57562,0,0,0,.40579-1.9604,5.15515,5.15515,0,0,0-.38756-2.03871,4.00867,4.00867,0,0,0-1.16142-1.54769,5.23456,5.23456,0,0,0-1.90266-.9416A10.707,10.707,0,0,0,47.21163,26.8981ZM46.95106,10a21.234,21.234,0,0,1,4.86382.47869,9.8578,9.8578,0,0,1,3.43256,1.47721,6.67751,6.67751,0,0,1,2.18118,2.54715,8.06709,8.06709,0,0,1,.7508,3.58493,7.72042,7.72042,0,0,1-.30116,2.18057,6.57165,6.57165,0,0,1-.88231,1.87692,6.50376,6.50376,0,0,1-1.42777,1.49482l-.34568.24837-.365.22832-.103.05378.38707.132.24572.09687.24137.10422.46973.23055a7.17958,7.17958,0,0,1,2.03541,1.59682,7.37851,7.37851,0,0,1,1.36526,2.28434A8.12035,8.12035,0,0,1,60,31.53659a9.31313,9.31313,0,0,1-.47225,3.04883A8.18959,8.18959,0,0,1,58.219,37.01583a8.39872,8.39872,0,0,1-1.99,1.816A11.47846,11.47846,0,0,1,53.7124,40.067a15.588,15.588,0,0,1-2.90388.70671,22.14441,22.14441,0,0,1-2.672.21727l-.7359.009H39.2702a2.37063,2.37063,0,0,1-1.59-.55749,2.09435,2.09435,0,0,1-.66986-1.50788L37,38.64548v-26.291a2.24369,2.24369,0,0,1,.68022-1.797,2.32445,2.32445,0,0,1,1.33-.54606L39.2702,10Z" fill="#fff"/><path d="M46.66835,15.43117H43.95024V22.4225l3.0485.00168a5.62354,5.62354,0,0,0,1.99394-.28612,3.2962,3.2962,0,0,0,1.18421-.76111,3.08492,3.08492,0,0,0,.69817-1.13211,4.18172,4.18172,0,0,0,.2366-1.41121,4.02736,4.02736,0,0,0-.25575-1.47925,2.52965,2.52965,0,0,0-.72873-1.03253,3.5239,3.5239,0,0,0-1.27758-.65163,7.16037,7.16037,0,0,0-1.79786-.23409Zm0-.8397a8.735,8.735,0,0,1,2.42726.27485,4.36866,4.36866,0,0,1,1.58442.81687,3.36948,3.36948,0,0,1,.97009,1.3683,4.84941,4.84941,0,0,1,.31308,1.78214,5.00947,5.00947,0,0,1-.28439,1.68854,3.92272,3.92272,0,0,1-.88651,1.43513,4.1441,4.1441,0,0,1-1.4851.96108,5.86868,5.86868,0,0,1-1.91337.33857l-.39509.00693H43.52447A.42473.42473,0,0,1,43.11,22.9403L43.0987,22.844V15.01132a.4213.4213,0,0,1,.32815-.40876l.09762-.01109Zm.54328,13.14633H43.95024v7.737h4.06524a7.27019,7.27019,0,0,0,2.06128-.24838,4.08684,4.08684,0,0,0,1.39188-.7163,3.23013,3.23013,0,0,0,.89987-1.15592,3.75184,3.75184,0,0,0,.327-1.60766,4.33179,4.33179,0,0,0-.32067-1.71249,3.16766,3.16766,0,0,0-.92-1.22725,4.397,4.397,0,0,0-1.59637-.78172,8.99969,8.99969,0,0,0-2.18886-.28134Zm0-.8397a10.707,10.707,0,0,1,2.88379.32042,5.23456,5.23456,0,0,1,1.90266.9416,4.00867,4.00867,0,0,1,1.16142,1.54769,5.15515,5.15515,0,0,1,.38756,2.03871,4.57562,4.57562,0,0,1-.40579,1.9604,4.0729,4.0729,0,0,1-1.13376,1.45335,4.9415,4.9415,0,0,1-1.6809.86887,7.46616,7.46616,0,0,1-1.86942.27749l-.44171.00785h-4.491A.42473.42473,0,0,1,43.11,35.9909l-.01125-.09627V27.318a.42129.42129,0,0,1,.32815-.40876l.09762-.01109Zm-.26057-16.0584H39.2702a1.52551,1.52551,0,0,0-1.03276.35274,1.29348,1.29348,0,0,0-.37762.92913l-.00828.233v26.291a1.462,1.462,0,0,0,.38678,1.16283,1.44226,1.44226,0,0,0,.78942.33794l.24246.014h8.13047a22.59341,22.59341,0,0,0,3.28171-.217,14.72871,14.72871,0,0,0,2.74386-.66714,10.62445,10.62445,0,0,0,2.33007-1.14275,7.55234,7.55234,0,0,0,1.79087-1.63352,7.35571,7.35571,0,0,0,1.17431-2.18457,8.4915,8.4915,0,0,0,.427-2.77869,7.29833,7.29833,0,0,0-.44611-2.62465,6.54331,6.54331,0,0,0-1.20963-2.028A6.33151,6.33151,0,0,0,55.69513,25.474a7.709,7.709,0,0,0-2.27229-.77267.4184.4184,0,0,1-.07187-.80654,6.33107,6.33107,0,0,0,1.69472-.91755,5.66139,5.66139,0,0,0,1.24468-1.30188,5.73747,5.73747,0,0,0,.76984-1.64,6.89325,6.89325,0,0,0,.26767-1.94739,7.24889,7.24889,0,0,0-.6659-3.21945,5.835,5.835,0,0,0-1.9103-2.22991,9.01364,9.01364,0,0,0-3.13746-1.34387,19.14569,19.14569,0,0,0-3.98586-.4479Zm0-.8397a21.234,21.234,0,0,1,4.86382.47869,9.8578,9.8578,0,0,1,3.43256,1.47721,6.67751,6.67751,0,0,1,2.18118,2.54715,8.06709,8.06709,0,0,1,.7508,3.58493,7.72042,7.72042,0,0,1-.30116,2.18057,6.57165,6.57165,0,0,1-.88231,1.87692,6.50376,6.50376,0,0,1-1.42777,1.49482l-.34568.24837-.365.22832-.103.05378.38707.132.24572.09687.24137.10422.46973.23055a7.17958,7.17958,0,0,1,2.03541,1.59682,7.37851,7.37851,0,0,1,1.36526,2.28434A8.12035,8.12035,0,0,1,60,31.53659a9.31313,9.31313,0,0,1-.47225,3.04883A8.18959,8.18959,0,0,1,58.219,37.01583a8.39872,8.39872,0,0,1-1.99,1.816A11.47846,11.47846,0,0,1,53.7124,40.067a15.588,15.588,0,0,1-2.90388.70671,22.14441,22.14441,0,0,1-2.672.21727l-.7359.009H39.2702a2.37063,2.37063,0,0,1-1.59-.55749,2.09435,2.09435,0,0,1-.66986-1.50788L37,38.64548v-26.291a2.24369,2.24369,0,0,1,.68022-1.797,2.32445,2.32445,0,0,1,1.33-.54606L39.2702,10Z" fill="#010101"/><path d="M11.37156,7.33054h-.00945L9.67239,12.39441h3.38889Zm.89551-2.31572a2.26345,2.26345,0,0,1,.50246.06331.48376.48376,0,0,1,.25933.15223.941.941,0,0,1,.13372.27616l3.69279,10.56287a3.21262,3.21262,0,0,1,.13912.52539.31927.31927,0,0,1-.07429.28963.60612.60612,0,0,1-.36063.11989c-.17154.01482-.40926.02291-.71047.02291-.31336,0-.55918-.00539-.73477-.01348a1.8767,1.8767,0,0,1-.40116-.05523.36384.36384,0,0,1-.19315-.11585.59639.59639,0,0,1-.09319-.19264l-.80366-2.3952h-4.487l-.75639,2.33054a.70822.70822,0,0,1-.09725.21554.3947.3947,0,0,1-.1945.13875,1.40888,1.40888,0,0,1-.37819.06871c-.16343.01212-.37684.01886-.64158.01886a5.99851,5.99851,0,0,1-.66454-.02829.49559.49559,0,0,1-.33227-.13337.35431.35431,0,0,1-.06483-.29906,3.11991,3.11991,0,0,1,.13777-.516L9.82907,5.47958a.88661.88661,0,0,1,.12967-.25326.45178.45178,0,0,1,.235-.14819,1.8208,1.8208,0,0,1,.44843-.06331q.22854-.01133.57568-.01418L11.39858,5Q11.94358,5,12.26707,5.01482Zm-.76584,14.04925a.75542.75542,0,0,1,.35928.08218,1.35548,1.35548,0,0,1,.31471.23979l3.03636,3.02835a.56144.56144,0,0,1,.0959.15627.29411.29411,0,0,1-.00406.198,1.002,1.002,0,0,1-.16208.28155,4.491,4.491,0,0,1-.36468.41357,4.36609,4.36609,0,0,1-.43358.392,1.26737,1.26737,0,0,1-.29985.17917.31182.31182,0,0,1-.21206.01482.44556.44556,0,0,1-.16208-.10642c-.72667-.718-.39305-.582-1.05084-1.30672V31.292a.20785.20785,0,0,1-.05538.13741.42443.42443,0,0,1-.181.11046,1.58918,1.58918,0,0,1-.34172.07409,5.16036,5.16036,0,0,1-1.07921,0,1.60839,1.60839,0,0,1-.34172-.07409.42437.42437,0,0,1-.181-.11046.20785.20785,0,0,1-.05538-.13741V22.63667c-.65779.72476-.32417.5887-1.05084,1.30672a.45236.45236,0,0,1-.16073.10642.31534.31534,0,0,1-.21341-.01482,1.2674,1.2674,0,0,1-.29986-.17917,4.69443,4.69443,0,0,1-.43357-.392,4.491,4.491,0,0,1-.36468-.41357,1.002,1.002,0,0,1-.16209-.28155.32639.32639,0,0,1-.00945-.198.40743.40743,0,0,1,.10265-.15627L10.82723,19.386a1.51579,1.51579,0,0,1,.29446-.23036A.74661.74661,0,0,1,11.50123,19.06407Zm1.11567,14.615a8.70933,8.70933,0,0,1,1.41282.10508,8.13475,8.13475,0,0,1,1.113.25865,4.39806,4.39806,0,0,1,.78881.326,2.01235,2.01235,0,0,1,.439.30445.76889.76889,0,0,1,.17964.36373,3.1902,3.1902,0,0,1,.05538.69512,3.7933,3.7933,0,0,1-.023.46072,1.36531,1.36531,0,0,1-.06483.30849.34089.34089,0,0,1-.10131.16166.23307.23307,0,0,1-.14317.0458.90251.90251,0,0,1-.38765-.1657,5.8714,5.8714,0,0,0-.71046-.35968,7.80549,7.80549,0,0,0-1.05759-.35968,5.50049,5.50049,0,0,0-1.42633-.1657,3.96521,3.96521,0,0,0-1.5695.30041,3.38652,3.38652,0,0,0-1.20077.84735A3.77159,3.77159,0,0,0,9.15508,38.122a5.1466,5.1466,0,0,0-.26744,1.69874,5.46252,5.46252,0,0,0,.27149,1.80112,3.67335,3.67335,0,0,0,.76179,1.30267,3.13588,3.13588,0,0,0,1.1778.79212,4.16288,4.16288,0,0,0,1.51818.26673,3.58689,3.58689,0,0,0,.80366-.0916,2.99424,2.99424,0,0,0,.73883-.27617v-2.763H11.897c-.11075,0-.1972-.0687-.258-.20745a1.879,1.879,0,0,1-.0932-.70456,3.49238,3.49238,0,0,1,.023-.43243,1.09315,1.09315,0,0,1,.07024-.28155.38472.38472,0,0,1,.11076-.15626.23165.23165,0,0,1,.14722-.04985H15.9315a.65124.65124,0,0,1,.26338.04985.56616.56616,0,0,1,.2026.15222.679.679,0,0,1,.13507.24383,1.10134,1.10134,0,0,1,.04593.32736v4.74191a1.12429,1.12429,0,0,1-.09725.48362.69439.69439,0,0,1-.39711.32735q-.29985.11922-.74288.24787-.4437.12933-.91847.22093-.47612.093-.96034.13876-.48624.04647-.97385.0458a7.47806,7.47806,0,0,1-2.56226-.40953,5.02611,5.02611,0,0,1-3.11739-3.08493,7.25886,7.25886,0,0,1-.41466-2.53666,7.341,7.341,0,0,1,.443-2.6296A5.57453,5.57453,0,0,1,8.09344,35.359a5.43425,5.43425,0,0,1,1.9612-1.24744A7.23441,7.23441,0,0,1,12.6169,33.67912Z" fill="#010101" fill-rule="evenodd"/><path d="M72.47427.70833H.715V50.29167H72.47284L95.0357,25.49858ZM72.79452,0,96,25.49946,72.79452,51H0V0Z" fill="#010101"/></svg>