<svg xmlns="http://www.w3.org/2000/svg" viewBox="0 0 96 51"><polygon points="24 0 71.78 0 96 25.5 71.78 51 24 51 24 0" fill="#fff200" fill-rule="evenodd"/><rect width="24" height="51" fill="#fff"/><path d="M45.16548,14.8014H42.05269l-.09665.01109a.42037.42037,0,0,0-.3249.40876V35.73173l.01113.09627a.42136.42136,0,0,0,.41042.32358h3.20722l.56812-.00833a11.9124,11.9124,0,0,0,3.83889-.67048,7.53618,7.53618,0,0,0,3.05806-2.086,8.8957,8.8957,0,0,0,1.8194-3.43417,16.70526,16.70526,0,0,0,.5901-4.68522,15.48685,15.48685,0,0,0-.5173-4.09549,8.91054,8.91054,0,0,0-1.69411-3.34966,7.92516,7.92516,0,0,0-3.01429-2.22842A12.03381,12.03381,0,0,0,45.16548,14.8014ZM45.51621,10a22.25713,22.25713,0,0,1,7.0042.96576,12.8775,12.8775,0,0,1,4.90809,2.89341,12.40689,12.40689,0,0,1,3.04071,4.73747A18.64034,18.64034,0,0,1,61.5,25.05748a20.96481,20.96481,0,0,1-1.1135,7.242,12.46121,12.46121,0,0,1-3.235,4.97742,12.96443,12.96443,0,0,1-5.1128,2.832,23.70932,23.70932,0,0,1-6.25451.88225L44.97831,41H37.74775a2.33813,2.33813,0,0,1-1.576-.55749,2.10037,2.10037,0,0,1-.6616-1.50756L35.5,38.64548v-26.291a2.2544,2.2544,0,0,1,.67256-1.79768,2.295,2.295,0,0,1,1.31767-.54545L37.74775,10Z" fill="#fff"/><path d="M11.37156,7.33054h-.00945L9.67239,12.39441h3.38889Zm.89551-2.31572a2.26345,2.26345,0,0,1,.50246.06331.48376.48376,0,0,1,.25933.15223.941.941,0,0,1,.13372.27616l3.69279,10.56287a3.21262,3.21262,0,0,1,.13912.52539.31927.31927,0,0,1-.07429.28963.60612.60612,0,0,1-.36063.11989c-.17154.01482-.40926.02291-.71047.02291-.31336,0-.55918-.00539-.73477-.01348a1.8767,1.8767,0,0,1-.40116-.05523.36384.36384,0,0,1-.19315-.11585.59639.59639,0,0,1-.09319-.19264l-.80366-2.3952h-4.487l-.75639,2.33054a.70822.70822,0,0,1-.09725.21554.3947.3947,0,0,1-.1945.13875,1.40888,1.40888,0,0,1-.37819.06871c-.16343.01212-.37684.01886-.64158.01886a5.99851,5.99851,0,0,1-.66454-.02829.49559.49559,0,0,1-.33227-.13337.35431.35431,0,0,1-.06483-.29906,3.11991,3.11991,0,0,1,.13777-.516L9.82907,5.47958a.88661.88661,0,0,1,.12967-.25326.45178.45178,0,0,1,.235-.14819,1.8208,1.8208,0,0,1,.44843-.06331q.22854-.01133.57568-.01418L11.39858,5Q11.94358,5,12.26707,5.01482Zm-.76584,14.04925a.75542.75542,0,0,1,.35928.08218,1.35548,1.35548,0,0,1,.31471.23979l3.03636,3.02835a.56144.56144,0,0,1,.0959.15627.29411.29411,0,0,1-.00406.198,1.002,1.002,0,0,1-.16208.28155,4.491,4.491,0,0,1-.36468.41357,4.36609,4.36609,0,0,1-.43358.392,1.26737,1.26737,0,0,1-.29985.17917.31182.31182,0,0,1-.21206.01482.44556.44556,0,0,1-.16208-.10642c-.72667-.718-.39305-.582-1.05084-1.30672V31.292a.20785.20785,0,0,1-.05538.13741.42443.42443,0,0,1-.181.11046,1.58918,1.58918,0,0,1-.34172.07409,5.16036,5.16036,0,0,1-1.07921,0,1.60839,1.60839,0,0,1-.34172-.07409.42437.42437,0,0,1-.181-.11046.20785.20785,0,0,1-.05538-.13741V22.63667c-.65779.72476-.32417.5887-1.05084,1.30672a.45236.45236,0,0,1-.16073.10642.31534.31534,0,0,1-.21341-.01482,1.2674,1.2674,0,0,1-.29986-.17917,4.69443,4.69443,0,0,1-.43357-.392,4.491,4.491,0,0,1-.36468-.41357,1.002,1.002,0,0,1-.16209-.28155.32639.32639,0,0,1-.00945-.198.40743.40743,0,0,1,.10265-.15627L10.82723,19.386a1.51579,1.51579,0,0,1,.29446-.23036A.74661.74661,0,0,1,11.50123,19.06407Zm1.11567,14.615a8.70933,8.70933,0,0,1,1.41282.10508,8.13475,8.13475,0,0,1,1.113.25865,4.39806,4.39806,0,0,1,.78881.326,2.01235,2.01235,0,0,1,.439.30445.76889.76889,0,0,1,.17964.36373,3.1902,3.1902,0,0,1,.05538.69512,3.7933,3.7933,0,0,1-.023.46072,1.36531,1.36531,0,0,1-.06483.30849.34089.34089,0,0,1-.10131.16166.23307.23307,0,0,1-.14317.0458.90251.90251,0,0,1-.38765-.1657,5.8714,5.8714,0,0,0-.71046-.35968,7.80549,7.80549,0,0,0-1.05759-.35968,5.50049,5.50049,0,0,0-1.42633-.1657,3.96521,3.96521,0,0,0-1.5695.30041,3.38652,3.38652,0,0,0-1.20077.84735A3.77159,3.77159,0,0,0,9.15508,38.122a5.1466,5.1466,0,0,0-.26744,1.69874,5.46252,5.46252,0,0,0,.27149,1.80112,3.67335,3.67335,0,0,0,.76179,1.30267,3.13588,3.13588,0,0,0,1.1778.79212,4.16288,4.16288,0,0,0,1.51818.26673,3.58689,3.58689,0,0,0,.80366-.0916,2.99424,2.99424,0,0,0,.73883-.27617v-2.763H11.897c-.11075,0-.1972-.0687-.258-.20745a1.879,1.879,0,0,1-.0932-.70456,3.49238,3.49238,0,0,1,.023-.43243,1.09315,1.09315,0,0,1,.07024-.28155.38472.38472,0,0,1,.11076-.15626.23165.23165,0,0,1,.14722-.04985H15.9315a.65124.65124,0,0,1,.26338.04985.56616.56616,0,0,1,.2026.15222.679.679,0,0,1,.13507.24383,1.10134,1.10134,0,0,1,.04593.32736v4.74191a1.12429,1.12429,0,0,1-.09725.48362.69439.69439,0,0,1-.39711.32735q-.29985.11922-.74288.24787-.4437.12933-.91847.22093-.47612.093-.96034.13876-.48624.04647-.97385.0458a7.47806,7.47806,0,0,1-2.56226-.40953,5.02611,5.02611,0,0,1-3.11739-3.08493,7.25886,7.25886,0,0,1-.41466-2.53666,7.341,7.341,0,0,1,.443-2.6296A5.57453,5.57453,0,0,1,8.09344,35.359a5.43425,5.43425,0,0,1,1.9612-1.24744A7.23441,7.23441,0,0,1,12.6169,33.67912Z" fill="#010101" fill-rule="evenodd"/><path d="M45.16548,15.6411H42.47425V35.31188h2.78566a11.73111,11.73111,0,0,0,4.10864-.62447,6.69424,6.69424,0,0,0,2.72215-1.85382,8.065,8.065,0,0,0,1.64426-3.116,15.8895,15.8895,0,0,0,.5564-4.45023,14.655,14.655,0,0,0-.48769-3.87492,8.07375,8.07375,0,0,0-1.53281-3.03811,7.08318,7.08318,0,0,0-2.69893-1.99077,10.5599,10.5599,0,0,0-3.86763-.7152Zm0-.8397a12.03381,12.03381,0,0,1,4.7433.79243,7.92516,7.92516,0,0,1,3.01429,2.22842,8.91054,8.91054,0,0,1,1.69411,3.34966,15.48685,15.48685,0,0,1,.5173,4.09549,16.70526,16.70526,0,0,1-.5901,4.68522,8.8957,8.8957,0,0,1-1.8194,3.43417,7.53618,7.53618,0,0,1-3.05806,2.086,11.9124,11.9124,0,0,1-3.83889.67048l-.56812.00833H42.05269a.42136.42136,0,0,1-.41042-.32358l-.01113-.09627V15.22125a.42037.42037,0,0,1,.3249-.40876l.09665-.01109Zm.35073-3.9617H37.74775a1.50494,1.50494,0,0,0-1.02423.35274,1.29788,1.29788,0,0,0-.37225.92868l-.00815.2334v26.291a1.47077,1.47077,0,0,0,.38052,1.16218,1.42684,1.42684,0,0,0,.78364.33862l.24047.014h7.23056a23.90439,23.90439,0,0,0,6.81725-.85544,12.1233,12.1233,0,0,0,4.78538-2.64619,11.62736,11.62736,0,0,0,3.0142-4.64889,20.15358,20.15358,0,0,0,1.06174-6.9523,17.81745,17.81745,0,0,0-.97912-6.17139,11.56962,11.56962,0,0,0-2.8344-4.42237,12.03711,12.03711,0,0,0-4.5915-2.702,20.54,20.54,0,0,0-6.022-.91437Zm0-.8397a22.25713,22.25713,0,0,1,7.0042.96576,12.8775,12.8775,0,0,1,4.90809,2.89341,12.40689,12.40689,0,0,1,3.04071,4.73747A18.64034,18.64034,0,0,1,61.5,25.05748a20.96481,20.96481,0,0,1-1.1135,7.242,12.46121,12.46121,0,0,1-3.235,4.97742,12.96443,12.96443,0,0,1-5.1128,2.832,23.70932,23.70932,0,0,1-6.25451.88225L44.97831,41H37.74775a2.33813,2.33813,0,0,1-1.576-.55749,2.10037,2.10037,0,0,1-.6616-1.50756L35.5,38.64548v-26.291a2.2544,2.2544,0,0,1,.67256-1.79768,2.295,2.295,0,0,1,1.31767-.54545L37.74775,10Z" fill="#010101"/><path d="M72.47427.70833H.715V50.29167H72.47284L95.0357,25.49858ZM72.79452,0,96,25.49946,72.79452,51H0V0Z" fill="#010101"/></svg>