<svg xmlns="http://www.w3.org/2000/svg" viewBox="0 0 96 51"><polygon points="24 0 71.78 0 96 25.5 71.78 51 24 51 24 0" fill="#fdb813" fill-rule="evenodd"/><rect width="24" height="51" fill="#fff"/><path d="M56.556,10H41.2725a2.38414,2.38414,0,0,0-1.59159.55749A2.23556,2.23556,0,0,0,39,12.35452v26.291a2.23577,2.23577,0,0,0,.68167,1.79768A2.37394,2.37394,0,0,0,41.2725,41h15.379a1.08355,1.08355,0,0,0,.64137-.20815,1.34952,1.34952,0,0,0,.43769-.58669,3.19691,3.19691,0,0,0,.20633-.84142,11.13913,11.13913,0,0,0-.00026-2.37055,3.19266,3.19266,0,0,0-.20733-.84241,1.3441,1.3441,0,0,0-.43407-.582l-.14953-.09142a1.07422,1.07422,0,0,0-.4942-.11843H46.05276V27.69077h8.82405a1.12959,1.12959,0,0,0,.62681-.18639,1.2646,1.2646,0,0,0,.44949-.56678,3.03415,3.03415,0,0,0,.21032-.82079,9.15731,9.15731,0,0,0,.06187-1.17521,9.25151,9.25151,0,0,0-.06136-1.16133,3.09037,3.09037,0,0,0-.21159-.83806,1.35765,1.35765,0,0,0-.43182-.56512l-.14787-.09117a1.0779,1.0779,0,0,0-.49585-.11868h-8.824V15.6411H56.556a1.02471,1.02471,0,0,0,.64408-.21914,1.38883,1.38883,0,0,0,.41282-.5757,3.28219,3.28219,0,0,0,.20633-.84142,9.186,9.186,0,0,0,.06311-1.15994,9.635,9.635,0,0,0-.06311-1.207,3.44843,3.44843,0,0,0-.20434-.84837,1.28,1.28,0,0,0-.43422-.59487A1.05219,1.05219,0,0,0,56.556,10Z" fill="#fff"/><path d="M11.37156,7.33054h-.00945L9.67239,12.39441h3.38889Zm.89551-2.31572a2.26345,2.26345,0,0,1,.50246.06331.48376.48376,0,0,1,.25933.15223.941.941,0,0,1,.13372.27616l3.69279,10.56287a3.21262,3.21262,0,0,1,.13912.52539.31927.31927,0,0,1-.07429.28963.60612.60612,0,0,1-.36063.11989c-.17154.01482-.40926.02291-.71047.02291-.31336,0-.55918-.00539-.73477-.01348a1.8767,1.8767,0,0,1-.40116-.05523.36384.36384,0,0,1-.19315-.11585.59639.59639,0,0,1-.09319-.19264l-.80366-2.3952h-4.487l-.75639,2.33054a.70822.70822,0,0,1-.09725.21554.3947.3947,0,0,1-.1945.13875,1.40888,1.40888,0,0,1-.37819.06871c-.16343.01212-.37684.01886-.64158.01886a5.99851,5.99851,0,0,1-.66454-.02829.49559.49559,0,0,1-.33227-.13337.35431.35431,0,0,1-.06483-.29906,3.11991,3.11991,0,0,1,.13777-.516L9.82907,5.47958a.88661.88661,0,0,1,.12967-.25326.45178.45178,0,0,1,.235-.14819,1.8208,1.8208,0,0,1,.44843-.06331q.22854-.01133.57568-.01418L11.39858,5Q11.94358,5,12.26707,5.01482Zm-.76584,14.04925a.75542.75542,0,0,1,.35928.08218,1.35548,1.35548,0,0,1,.31471.23979l3.03636,3.02835a.56144.56144,0,0,1,.0959.15627.29411.29411,0,0,1-.00406.198,1.002,1.002,0,0,1-.16208.28155,4.491,4.491,0,0,1-.36468.41357,4.36609,4.36609,0,0,1-.43358.392,1.26737,1.26737,0,0,1-.29985.17917.31182.31182,0,0,1-.21206.01482.44556.44556,0,0,1-.16208-.10642c-.72667-.718-.39305-.582-1.05084-1.30672V31.292a.20785.20785,0,0,1-.05538.13741.42443.42443,0,0,1-.181.11046,1.58918,1.58918,0,0,1-.34172.07409,5.16036,5.16036,0,0,1-1.07921,0,1.60839,1.60839,0,0,1-.34172-.07409.42437.42437,0,0,1-.181-.11046.20785.20785,0,0,1-.05538-.13741V22.63667c-.65779.72476-.32417.5887-1.05084,1.30672a.45236.45236,0,0,1-.16073.10642.31534.31534,0,0,1-.21341-.01482,1.2674,1.2674,0,0,1-.29986-.17917,4.69443,4.69443,0,0,1-.43357-.392,4.491,4.491,0,0,1-.36468-.41357,1.002,1.002,0,0,1-.16209-.28155.32639.32639,0,0,1-.00945-.198.40743.40743,0,0,1,.10265-.15627L10.82723,19.386a1.51579,1.51579,0,0,1,.29446-.23036A.74661.74661,0,0,1,11.50123,19.06407Zm1.11567,14.615a8.70933,8.70933,0,0,1,1.41282.10508,8.13475,8.13475,0,0,1,1.113.25865,4.39806,4.39806,0,0,1,.78881.326,2.01235,2.01235,0,0,1,.439.30445.76889.76889,0,0,1,.17964.36373,3.1902,3.1902,0,0,1,.05538.69512,3.7933,3.7933,0,0,1-.023.46072,1.36531,1.36531,0,0,1-.06483.30849.34089.34089,0,0,1-.10131.16166.23307.23307,0,0,1-.14317.0458.90251.90251,0,0,1-.38765-.1657,5.8714,5.8714,0,0,0-.71046-.35968,7.80549,7.80549,0,0,0-1.05759-.35968,5.50049,5.50049,0,0,0-1.42633-.1657,3.96521,3.96521,0,0,0-1.5695.30041,3.38652,3.38652,0,0,0-1.20077.84735A3.77159,3.77159,0,0,0,9.15508,38.122a5.1466,5.1466,0,0,0-.26744,1.69874,5.46252,5.46252,0,0,0,.27149,1.80112,3.67335,3.67335,0,0,0,.76179,1.30267,3.13588,3.13588,0,0,0,1.1778.79212,4.16288,4.16288,0,0,0,1.51818.26673,3.58689,3.58689,0,0,0,.80366-.0916,2.99424,2.99424,0,0,0,.73883-.27617v-2.763H11.897c-.11075,0-.1972-.0687-.258-.20745a1.879,1.879,0,0,1-.0932-.70456,3.49238,3.49238,0,0,1,.023-.43243,1.09315,1.09315,0,0,1,.07024-.28155.38472.38472,0,0,1,.11076-.15626.23165.23165,0,0,1,.14722-.04985H15.9315a.65124.65124,0,0,1,.26338.04985.56616.56616,0,0,1,.2026.15222.679.679,0,0,1,.13507.24383,1.10134,1.10134,0,0,1,.04593.32736v4.74191a1.12429,1.12429,0,0,1-.09725.48362.69439.69439,0,0,1-.39711.32735q-.29985.11922-.74288.24787-.4437.12933-.91847.22093-.47612.093-.96034.13876-.48624.04647-.97385.0458a7.47806,7.47806,0,0,1-2.56226-.40953,5.02611,5.02611,0,0,1-3.11739-3.08493,7.25886,7.25886,0,0,1-.41466-2.53666,7.341,7.341,0,0,1,.443-2.6296A5.57453,5.57453,0,0,1,8.09344,35.359a5.43425,5.43425,0,0,1,1.9612-1.24744A7.23441,7.23441,0,0,1,12.6169,33.67912Z" fill="#010101" fill-rule="evenodd"/><path d="M41.2725,10.8397H56.556a.2.2,0,0,1,.1262.03611.5188.5188,0,0,1,.14079.22446,2.66548,2.66548,0,0,1,.15068.64381A8.8623,8.8623,0,0,1,57.03,12.8449a8.39554,8.39554,0,0,1-.05623,1.05351,2.50756,2.50756,0,0,1-.14827.62637.60305.60305,0,0,1-.15406.23852.16851.16851,0,0,1-.11538.0381H45.62656a.42306.42306,0,0,0-.4262.41985v7.36583a.42306.42306,0,0,0,.4262.41985h9.25025a.21983.21983,0,0,1,.13707.04542.55247.55247,0,0,1,.15728.22585,2.33678,2.33678,0,0,1,.14752.61049q.027.20934.04061.47263l.01361.58028-.01362.59388q-.01362.26591-.04075.47019a2.28083,2.28083,0,0,1-.146.59461.47754.47754,0,0,1-.14173.20543.26841.26841,0,0,1-.154.04537H45.62656a.42306.42306,0,0,0-.4262.41984v8.50783a.42306.42306,0,0,0,.4262.41985H56.6515a.224.224,0,0,1,.13943.04712.55174.55174,0,0,1,.15217.2295,2.439,2.439,0,0,1,.14827.62637,10.36371,10.36371,0,0,1,.00026,2.15375,2.44709,2.44709,0,0,1-.14726.62538.55526.55526,0,0,1-.1558.23416.22131.22131,0,0,1-.13707.04542H41.2725a1.51967,1.51967,0,0,1-1.03292-.352,1.45562,1.45562,0,0,1-.38718-1.16283v-26.291a1.4559,1.4559,0,0,1,.38553-1.16143A1.52857,1.52857,0,0,1,41.2725,10.8397ZM56.556,10H41.2725a2.38414,2.38414,0,0,0-1.59159.55749A2.23556,2.23556,0,0,0,39,12.35452v26.291a2.23577,2.23577,0,0,0,.68167,1.79768A2.37394,2.37394,0,0,0,41.2725,41h15.379a1.08355,1.08355,0,0,0,.64137-.20815,1.34952,1.34952,0,0,0,.43769-.58669,3.19691,3.19691,0,0,0,.20633-.84142,11.13913,11.13913,0,0,0-.00026-2.37055,3.19266,3.19266,0,0,0-.20733-.84241,1.3441,1.3441,0,0,0-.43407-.582l-.14953-.09142a1.07422,1.07422,0,0,0-.4942-.11843H46.05276V27.69077h8.82405a1.12959,1.12959,0,0,0,.62681-.18639,1.2646,1.2646,0,0,0,.44949-.56678,3.03415,3.03415,0,0,0,.21032-.82079,9.15731,9.15731,0,0,0,.06187-1.17521,9.25151,9.25151,0,0,0-.06136-1.16133,3.09037,3.09037,0,0,0-.21159-.83806,1.35765,1.35765,0,0,0-.43182-.56512l-.14787-.09117a1.0779,1.0779,0,0,0-.49585-.11868h-8.824V15.6411H56.556a1.02471,1.02471,0,0,0,.64408-.21914,1.38883,1.38883,0,0,0,.41282-.5757,3.28219,3.28219,0,0,0,.20633-.84142,9.186,9.186,0,0,0,.06311-1.15994,9.635,9.635,0,0,0-.06311-1.207,3.44843,3.44843,0,0,0-.20434-.84837,1.28,1.28,0,0,0-.43422-.59487A1.05219,1.05219,0,0,0,56.556,10Z" fill="#010101"/><path d="M72.47427.70833H.715V50.29167H72.47284L95.0357,25.49858ZM72.79452,0,96,25.49946,72.79452,51H0V0Z" fill="#010101"/></svg>