<svg xmlns="http://www.w3.org/2000/svg" viewBox="0 0 96 51"><polygon points="24 0 71.78 0 96 25.5 71.78 51 24 51 24 0" fill="#00a650" fill-rule="evenodd"/><rect y="-0.00049" width="24" height="51" fill="#fff"/><path d="M48.18079,16.25914h-.02137l-4.17528,12.705h8.37193ZM61.73235,38.182a8.01884,8.01884,0,0,1,.34192,1.31661.79916.79916,0,0,1-.18247.72737,1.47979,1.47979,0,0,1-.8893.30128q-.63861.05742-1.75723.05659-1.16134,0-1.81312-.035a4.31876,4.31876,0,0,1-.99286-.13815.895.895,0,0,1-.47835-.288,1.56389,1.56389,0,0,1-.22849-.486l-1.98408-6.00545H42.66088l-1.87066,5.844a1.87155,1.87155,0,0,1-.24.54262.96576.96576,0,0,1-.47834.34622,3.469,3.469,0,0,1-.93533.17477c-.40438.03-.932.04494-1.58628.04494a15.36328,15.36328,0,0,1-1.64216-.06825,1.24421,1.24421,0,0,1-.82191-.33622.91122.91122,0,0,1-.15945-.75068,7.65656,7.65656,0,0,1,.34192-1.29331L44.37208,11.6169a2.29573,2.29573,0,0,1,.3189-.63584,1.13241,1.13241,0,0,1,.58191-.36951,4.53722,4.53722,0,0,1,1.10628-.16145q.70767-.035,1.87066-.035,1.34628,0,2.14517.035a5.64338,5.64338,0,0,1,1.24272.16145,1.18824,1.18824,0,0,1,.63944.38116,2.30611,2.30611,0,0,1,.33041.69243Z" fill="#fff"/><path d="M48.16928,17.54412,44.5529,28.548h7.23276Zm-.30622-1.7011h.61409l4.44877,13.53723H43.41429Zm.38782-5.01176-1.04142.00864-.56561.01531q-.12869.00479-.24465.01051a4.18362,4.18362,0,0,0-1.00291.14275.74668.74668,0,0,0-.37858.225,1.57267,1.57267,0,0,0-.17772.3144l-.07974.20566L35.65744,38.27029a7.29757,7.29757,0,0,0-.3239,1.21758.52054.52054,0,0,0,.06283.41856.91048.91048,0,0,0,.55768.19569c.18968.02161.41868.038.68529.049l.58286.01475q.158.00186.32807.00186l.71292-.007.59147-.021q.13267-.007.25012-.01568a3.11681,3.11681,0,0,0,.82343-.14976.57345.57345,0,0,0,.28248-.19076,1.27028,1.27028,0,0,0,.13254-.26438l2.01885-6.30394H54.04423l2.08121,6.29989a1.167,1.167,0,0,0,.16533.35948.5556.5556,0,0,0,.26738.13785,3.99062,3.99062,0,0,0,.89576.121l.48285.01906.93876.01435.72634-.00056.62869-.01218.517-.02437q.11539-.0076.217-.01675a1.17712,1.17712,0,0,0,.644-.18846c.06027-.058.08743-.16638.05863-.36848a6.34355,6.34355,0,0,0-.22594-.93189l-.097-.30507L52.21617,11.812a1.91463,1.91463,0,0,0-.26391-.56444.81134.81134,0,0,0-.42657-.23561,5.294,5.294,0,0,0-1.14848-.14608l-.58692-.01919-1.109-.01442Q48.47364,10.83126,48.25088,10.83126ZM48.68611,10l1.12679.01471.59984.01965a5.99149,5.99149,0,0,1,1.337.17683,1.57963,1.57963,0,0,1,.85386.52875,2.40234,2.40234,0,0,1,.31007.575l9.20854,26.7355a8.3632,8.3632,0,0,1,.35878,1.38875,1.203,1.203,0,0,1-.30454,1.08695,1.83118,1.83118,0,0,1-1.13761.41564l-.48928.03254-.59688.01931L59.24527,41,58.201,40.99115l-.55445-.01576-.23461-.01085a4.67478,4.67478,0,0,1-1.08969-.15488,1.27775,1.27775,0,0,1-.689-.43574,1.73549,1.73549,0,0,1-.21114-.3804l-.07937-.22472-1.89189-5.72134H42.95841l-1.77293,5.54178a2.66,2.66,0,0,1-.11136.31992l-.06765.14484-.1167.19837a1.36511,1.36511,0,0,1-.67171.5007,3.83294,3.83294,0,0,1-1.05152.20088q-.2496.01849-.55769.02952l-.67582.0147Q37.74916,41,37.55027,41l-.66035-.00788-.56361-.02366q-.25742-.01578-.46563-.03948a1.613,1.613,0,0,1-1.08483-.47681A1.31714,1.31714,0,0,1,34.52,39.36929a6.91036,6.91036,0,0,1,.255-1.04666l.1055-.32383L43.984,11.4801a2.70244,2.70244,0,0,1,.38028-.75143,1.52889,1.52889,0,0,1,.78524-.514,4.23276,4.23276,0,0,1,.91886-.16114l.54326-.02988.90839-.02067Z" fill="#010101"/><path d="M11.37156,7.33054h-.00945L9.67239,12.39441h3.38889Zm.89551-2.31572a2.26345,2.26345,0,0,1,.50246.06331.48376.48376,0,0,1,.25933.15223.941.941,0,0,1,.13372.27616l3.69279,10.56287a3.21262,3.21262,0,0,1,.13912.52539.31927.31927,0,0,1-.07429.28963.60612.60612,0,0,1-.36063.11989c-.17154.01482-.40926.02291-.71047.02291-.31336,0-.55918-.00539-.73477-.01348a1.8767,1.8767,0,0,1-.40116-.05523.36384.36384,0,0,1-.19315-.11585.59639.59639,0,0,1-.09319-.19264l-.80366-2.3952h-4.487l-.75639,2.33054a.70822.70822,0,0,1-.09725.21554.3947.3947,0,0,1-.1945.13875,1.40888,1.40888,0,0,1-.37819.06871c-.16343.01212-.37684.01886-.64158.01886a5.99851,5.99851,0,0,1-.66454-.02829.49559.49559,0,0,1-.33227-.13337.35431.35431,0,0,1-.06483-.29906,3.11991,3.11991,0,0,1,.13777-.516L9.82907,5.47958a.88661.88661,0,0,1,.12967-.25326.45178.45178,0,0,1,.235-.14819,1.8208,1.8208,0,0,1,.44843-.06331q.22854-.01133.57568-.01418L11.39858,5Q11.94358,5,12.26707,5.01482Zm-.76584,14.04925a.75542.75542,0,0,1,.35928.08218,1.35548,1.35548,0,0,1,.31471.23979l3.03636,3.02835a.56144.56144,0,0,1,.0959.15627.29411.29411,0,0,1-.00406.198,1.002,1.002,0,0,1-.16208.28155,4.491,4.491,0,0,1-.36468.41357,4.36609,4.36609,0,0,1-.43358.392,1.26737,1.26737,0,0,1-.29985.17917.31182.31182,0,0,1-.21206.01482.44556.44556,0,0,1-.16208-.10642c-.72667-.718-.39305-.582-1.05084-1.30672V31.292a.20785.20785,0,0,1-.05538.13741.42443.42443,0,0,1-.181.11046,1.58918,1.58918,0,0,1-.34172.07409,5.16036,5.16036,0,0,1-1.07921,0,1.60839,1.60839,0,0,1-.34172-.07409.42437.42437,0,0,1-.181-.11046.20785.20785,0,0,1-.05538-.13741V22.63667c-.65779.72476-.32417.5887-1.05084,1.30672a.45236.45236,0,0,1-.16073.10642.31534.31534,0,0,1-.21341-.01482,1.2674,1.2674,0,0,1-.29986-.17917,4.69443,4.69443,0,0,1-.43357-.392,4.491,4.491,0,0,1-.36468-.41357,1.002,1.002,0,0,1-.16209-.28155.32639.32639,0,0,1-.00945-.198.40743.40743,0,0,1,.10265-.15627L10.82723,19.386a1.51579,1.51579,0,0,1,.29446-.23036A.74661.74661,0,0,1,11.50123,19.06407Zm1.11567,14.615a8.70933,8.70933,0,0,1,1.41282.10508,8.13475,8.13475,0,0,1,1.113.25865,4.39806,4.39806,0,0,1,.78881.326,2.01235,2.01235,0,0,1,.439.30445.76889.76889,0,0,1,.17964.36373,3.1902,3.1902,0,0,1,.05538.69512,3.7933,3.7933,0,0,1-.023.46072,1.36531,1.36531,0,0,1-.06483.30849.34089.34089,0,0,1-.10131.16166.23307.23307,0,0,1-.14317.0458.90251.90251,0,0,1-.38765-.1657,5.8714,5.8714,0,0,0-.71046-.35968,7.80549,7.80549,0,0,0-1.05759-.35968,5.50049,5.50049,0,0,0-1.42633-.1657,3.96521,3.96521,0,0,0-1.5695.30041,3.38652,3.38652,0,0,0-1.20077.84735A3.77159,3.77159,0,0,0,9.15508,38.122a5.1466,5.1466,0,0,0-.26744,1.69874,5.46252,5.46252,0,0,0,.27149,1.80112,3.67335,3.67335,0,0,0,.76179,1.30267,3.13588,3.13588,0,0,0,1.1778.79212,4.16288,4.16288,0,0,0,1.51818.26673,3.58689,3.58689,0,0,0,.80366-.0916,2.99424,2.99424,0,0,0,.73883-.27617v-2.763H11.897c-.11075,0-.1972-.0687-.258-.20745a1.879,1.879,0,0,1-.0932-.70456,3.49238,3.49238,0,0,1,.023-.43243,1.09315,1.09315,0,0,1,.07024-.28155.38472.38472,0,0,1,.11076-.15626.23165.23165,0,0,1,.14722-.04985H15.9315a.65124.65124,0,0,1,.26338.04985.56616.56616,0,0,1,.2026.15222.679.679,0,0,1,.13507.24383,1.10134,1.10134,0,0,1,.04593.32736v4.74191a1.12429,1.12429,0,0,1-.09725.48362.69439.69439,0,0,1-.39711.32735q-.29985.11922-.74288.24787-.4437.12933-.91847.22093-.47612.093-.96034.13876-.48624.04647-.97385.0458a7.47806,7.47806,0,0,1-2.56226-.40953,5.02611,5.02611,0,0,1-3.11739-3.08493,7.25886,7.25886,0,0,1-.41466-2.53666,7.341,7.341,0,0,1,.443-2.6296A5.57453,5.57453,0,0,1,8.09344,35.359a5.43425,5.43425,0,0,1,1.9612-1.24744A7.23441,7.23441,0,0,1,12.6169,33.67912Z" fill="#010101" fill-rule="evenodd"/><path d="M72.47427.70833H.715V50.29167H72.47284L95.0357,25.49858ZM72.79452,0,96,25.49946,72.79452,51H0V0Z" fill="#010101"/></svg>