<svg xmlns="http://www.w3.org/2000/svg" viewBox="0 0 96 51"><polygon points="24 0 71.78 0 96 25.5 71.78 51 24 51 24 0" fill="#bed630" fill-rule="evenodd"/><rect width="24" height="51" fill="#fff"/><path d="M51.19134,10A14.323,14.323,0,0,0,45.647,11.046a11.80923,11.80923,0,0,0-4.34322,3.086A14.26273,14.26273,0,0,0,38.497,19.13138,21.11786,21.11786,0,0,0,37.5,25.885a21.41584,21.41584,0,0,0,.90578,6.543,12.83384,12.83384,0,0,0,2.63327,4.74654,10.88723,10.88723,0,0,0,4.18317,2.87219A14.86907,14.86907,0,0,0,50.68212,41a15.233,15.233,0,0,0,2.87542-.25451,14.93074,14.93074,0,0,0,2.36741-.63936,11.283,11.283,0,0,0,1.76715-.80936,4.78,4.78,0,0,0,1.03074-.73668,2.668,2.668,0,0,0,.41684-.55072,2.2373,2.2373,0,0,0,.21584-.58839,5.09385,5.09385,0,0,0,.10948-.7345l.02628-.45627L59.5,35.69088l-.00749-.605-.02226-.51145q-.00738-.11585-.01657-.21941a4.01817,4.01817,0,0,0-.15135-.8491,1.05618,1.05618,0,0,0-.37772-.57043,1.00914,1.00914,0,0,0-.57713-.16048,1.64179,1.64179,0,0,0-.83493.30118l-.19854.13052q-.50427.35079-1.29715.79375a10.7679,10.7679,0,0,1-1.86935.79528,8.24059,8.24059,0,0,1-2.5571.353,7.162,7.162,0,0,1-2.91024-.56594,5.63793,5.63793,0,0,1-2.17474-1.70045,8.28594,8.28594,0,0,1-1.4092-2.96225,16.44985,16.44985,0,0,1-.50713-4.35253,16.37814,16.37814,0,0,1,.47509-4.12034,9.23047,9.23047,0,0,1,1.36606-3.06308A6.186,6.186,0,0,1,48.573,16.47252a6.01478,6.01478,0,0,1,2.86254-.66521,7.64746,7.64746,0,0,1,2.5382.37314,10.20794,10.20794,0,0,1,1.85459.84672c.41579.24968.77358.48329,1.07.69778l.21078.15723a1.85232,1.85232,0,0,0,1.08347.47794.9146.9146,0,0,0,.61486-.23379,1.43988,1.43988,0,0,0,.37753-.59353,3.38887,3.38887,0,0,0,.17919-.87567c.03119-.32468.04639-.71983.04639-1.18846l-.00867-.59777-.02611-.49763a6.28988,6.28988,0,0,0-.10666-.79908,2.34534,2.34534,0,0,0-.21826-.631,2.8676,2.8676,0,0,0-.47711-.59846,5.41208,5.41208,0,0,0-1.139-.8015A10.55113,10.55113,0,0,0,55.6732,10.756a14.1846,14.1846,0,0,0-2.108-.54615A13.15092,13.15092,0,0,0,51.19134,10Z" fill="#fff"/><path d="M11.37156,7.33054h-.00945L9.67239,12.39441h3.38889Zm.89551-2.31572a2.26345,2.26345,0,0,1,.50246.06331.48376.48376,0,0,1,.25933.15223.941.941,0,0,1,.13372.27616l3.69279,10.56287a3.21262,3.21262,0,0,1,.13912.52539.31927.31927,0,0,1-.07429.28963.60612.60612,0,0,1-.36063.11989c-.17154.01482-.40926.02291-.71047.02291-.31336,0-.55918-.00539-.73477-.01348a1.8767,1.8767,0,0,1-.40116-.05523.36384.36384,0,0,1-.19315-.11585.59639.59639,0,0,1-.09319-.19264l-.80366-2.3952h-4.487l-.75639,2.33054a.70822.70822,0,0,1-.09725.21554.3947.3947,0,0,1-.1945.13875,1.40888,1.40888,0,0,1-.37819.06871c-.16343.01212-.37684.01886-.64158.01886a5.99851,5.99851,0,0,1-.66454-.02829.49559.49559,0,0,1-.33227-.13337.35431.35431,0,0,1-.06483-.29906,3.11991,3.11991,0,0,1,.13777-.516L9.82907,5.47958a.88661.88661,0,0,1,.12967-.25326.45178.45178,0,0,1,.235-.14819,1.8208,1.8208,0,0,1,.44843-.06331q.22854-.01133.57568-.01418L11.39858,5Q11.94358,5,12.26707,5.01482Zm-.76584,14.04925a.75542.75542,0,0,1,.35928.08218,1.35548,1.35548,0,0,1,.31471.23979l3.03636,3.02835a.56144.56144,0,0,1,.0959.15627.29411.29411,0,0,1-.00406.198,1.002,1.002,0,0,1-.16208.28155,4.491,4.491,0,0,1-.36468.41357,4.36609,4.36609,0,0,1-.43358.392,1.26737,1.26737,0,0,1-.29985.17917.31182.31182,0,0,1-.21206.01482.44556.44556,0,0,1-.16208-.10642c-.72667-.718-.39305-.582-1.05084-1.30672V31.292a.20785.20785,0,0,1-.05538.13741.42443.42443,0,0,1-.181.11046,1.58918,1.58918,0,0,1-.34172.07409,5.16036,5.16036,0,0,1-1.07921,0,1.60839,1.60839,0,0,1-.34172-.07409.42437.42437,0,0,1-.181-.11046.20785.20785,0,0,1-.05538-.13741V22.63667c-.65779.72476-.32417.5887-1.05084,1.30672a.45236.45236,0,0,1-.16073.10642.31534.31534,0,0,1-.21341-.01482,1.2674,1.2674,0,0,1-.29986-.17917,4.69443,4.69443,0,0,1-.43357-.392,4.491,4.491,0,0,1-.36468-.41357,1.002,1.002,0,0,1-.16209-.28155.32639.32639,0,0,1-.00945-.198.40743.40743,0,0,1,.10265-.15627L10.82723,19.386a1.51579,1.51579,0,0,1,.29446-.23036A.74661.74661,0,0,1,11.50123,19.06407Zm1.11567,14.615a8.70933,8.70933,0,0,1,1.41282.10508,8.13475,8.13475,0,0,1,1.113.25865,4.39806,4.39806,0,0,1,.78881.326,2.01235,2.01235,0,0,1,.439.30445.76889.76889,0,0,1,.17964.36373,3.1902,3.1902,0,0,1,.05538.69512,3.7933,3.7933,0,0,1-.023.46072,1.36531,1.36531,0,0,1-.06483.30849.34089.34089,0,0,1-.10131.16166.23307.23307,0,0,1-.14317.0458.90251.90251,0,0,1-.38765-.1657,5.8714,5.8714,0,0,0-.71046-.35968,7.80549,7.80549,0,0,0-1.05759-.35968,5.50049,5.50049,0,0,0-1.42633-.1657,3.96521,3.96521,0,0,0-1.5695.30041,3.38652,3.38652,0,0,0-1.20077.84735A3.77159,3.77159,0,0,0,9.15508,38.122a5.1466,5.1466,0,0,0-.26744,1.69874,5.46252,5.46252,0,0,0,.27149,1.80112,3.67335,3.67335,0,0,0,.76179,1.30267,3.13588,3.13588,0,0,0,1.1778.79212,4.16288,4.16288,0,0,0,1.51818.26673,3.58689,3.58689,0,0,0,.80366-.0916,2.99424,2.99424,0,0,0,.73883-.27617v-2.763H11.897c-.11075,0-.1972-.0687-.258-.20745a1.879,1.879,0,0,1-.0932-.70456,3.49238,3.49238,0,0,1,.023-.43243,1.09315,1.09315,0,0,1,.07024-.28155.38472.38472,0,0,1,.11076-.15626.23165.23165,0,0,1,.14722-.04985H15.9315a.65124.65124,0,0,1,.26338.04985.56616.56616,0,0,1,.2026.15222.679.679,0,0,1,.13507.24383,1.10134,1.10134,0,0,1,.04593.32736v4.74191a1.12429,1.12429,0,0,1-.09725.48362.69439.69439,0,0,1-.39711.32735q-.29985.11922-.74288.24787-.4437.12933-.91847.22093-.47612.093-.96034.13876-.48624.04647-.97385.0458a7.47806,7.47806,0,0,1-2.56226-.40953,5.02611,5.02611,0,0,1-3.11739-3.08493,7.25886,7.25886,0,0,1-.41466-2.53666,7.341,7.341,0,0,1,.443-2.6296A5.57453,5.57453,0,0,1,8.09344,35.359a5.43425,5.43425,0,0,1,1.9612-1.24744A7.23441,7.23441,0,0,1,12.6169,33.67912Z" fill="#010101" fill-rule="evenodd"/><path d="M51.19134,10.814a12.36905,12.36905,0,0,1,2.23287.1971,13.40409,13.40409,0,0,1,1.99141.51538,9.76635,9.76635,0,0,1,1.62939.72713,4.81539,4.81539,0,0,1,.96442.66675l.21863.24077a1.20594,1.20594,0,0,1,.12475.17668,1.56041,1.56041,0,0,1,.13624.40839,5.49994,5.49994,0,0,1,.09116.69177l.01407.21884.01615.5156q.002.14175.002.29623c0,.4441-.01423.81383-.0428,1.11137a2.61874,2.61874,0,0,1-.1303.66244.69282.69282,0,0,1-.15245.2668.12774.12774,0,0,1-.09428.0368,1.24571,1.24571,0,0,1-.60125-.31256,14.39291,14.39291,0,0,0-1.35765-.90756,10.97821,10.97821,0,0,0-1.99839-.91458,8.40926,8.40926,0,0,0-2.79978-.4181,6.79671,6.79671,0,0,0-3.23132.75731A6.98913,6.98913,0,0,0,45.7843,17.906a10.043,10.043,0,0,0-1.49163,3.33272,17.19544,17.19544,0,0,0-.50171,4.32884,17.25405,17.25405,0,0,0,.537,4.57314,9.08977,9.08977,0,0,0,1.556,3.2524,6.43807,6.43807,0,0,0,2.48057,1.93735,7.94111,7.94111,0,0,0,3.22589.63231,9.00463,9.00463,0,0,0,2.80249-.39242,11.53843,11.53843,0,0,0,2.0076-.85606l.31772-.18031.56788-.34066q.13064-.08181.24989-.16022l.227-.15338a1.43386,1.43386,0,0,1,.58446-.29067.26557.26557,0,0,1,.13439.02375l.03935.08406c.00749.01889.01561.041.02393.06649a3.3069,3.3069,0,0,1,.11382.667l.02719.43049.01392.52976q.00177.14436.00178.30026l-.00805.50574q-.008.23152-.024.41977a4.3002,4.3002,0,0,1-.09091.61682,1.44577,1.44577,0,0,1-.13652.38011,1.91719,1.91719,0,0,1-.29467.38234,4.24694,4.24694,0,0,1-.85148.59426,10.52389,10.52389,0,0,1-1.64391.75114,14.1589,14.1589,0,0,1-2.24253.60446,14.45653,14.45653,0,0,1-2.72768.24045,14.092,14.092,0,0,1-5.17422-.89934,10.09033,10.09033,0,0,1-3.88159-2.66337,12.02277,12.02277,0,0,1-2.46207-4.44877,20.60373,20.60373,0,0,1-.8661-6.28945,20.30109,20.30109,0,0,1,.95369-6.48913,13.45109,13.45109,0,0,1,2.64287-4.71674,11.01078,11.01078,0,0,1,4.05343-2.87933A13.542,13.542,0,0,1,51.19134,10.814Zm0-.814A14.323,14.323,0,0,0,45.647,11.046a11.80923,11.80923,0,0,0-4.34322,3.086A14.26273,14.26273,0,0,0,38.497,19.13138,21.11786,21.11786,0,0,0,37.5,25.885a21.41584,21.41584,0,0,0,.90578,6.543,12.83384,12.83384,0,0,0,2.63327,4.74654,10.88723,10.88723,0,0,0,4.18317,2.87219A14.86907,14.86907,0,0,0,50.68212,41a15.233,15.233,0,0,0,2.87542-.25451,14.93074,14.93074,0,0,0,2.36741-.63936,11.283,11.283,0,0,0,1.76715-.80936,4.78,4.78,0,0,0,1.03074-.73668,2.668,2.668,0,0,0,.41684-.55072,2.2373,2.2373,0,0,0,.21584-.58839,5.09385,5.09385,0,0,0,.10948-.7345l.02628-.45627L59.5,35.69088l-.00749-.605-.02226-.51145q-.00738-.11585-.01657-.21941a4.01817,4.01817,0,0,0-.15135-.8491,1.05618,1.05618,0,0,0-.37772-.57043,1.00914,1.00914,0,0,0-.57713-.16048,1.64179,1.64179,0,0,0-.83493.30118l-.19854.13052q-.50427.35079-1.29715.79375a10.7679,10.7679,0,0,1-1.86935.79528,8.24059,8.24059,0,0,1-2.5571.353,7.162,7.162,0,0,1-2.91024-.56594,5.63793,5.63793,0,0,1-2.17474-1.70045,8.28594,8.28594,0,0,1-1.4092-2.96225,16.44985,16.44985,0,0,1-.50713-4.35253,16.37814,16.37814,0,0,1,.47509-4.12034,9.23047,9.23047,0,0,1,1.36606-3.06308A6.186,6.186,0,0,1,48.573,16.47252a6.01478,6.01478,0,0,1,2.86254-.66521,7.64746,7.64746,0,0,1,2.5382.37314,10.20794,10.20794,0,0,1,1.85459.84672c.41579.24968.77358.48329,1.07.69778l.21078.15723a1.85232,1.85232,0,0,0,1.08347.47794.9146.9146,0,0,0,.61486-.23379,1.43988,1.43988,0,0,0,.37753-.59353,3.38887,3.38887,0,0,0,.17919-.87567c.03119-.32468.04639-.71983.04639-1.18846l-.00867-.59777-.02611-.49763a6.28988,6.28988,0,0,0-.10666-.79908,2.34534,2.34534,0,0,0-.21826-.631,2.8676,2.8676,0,0,0-.47711-.59846,5.41208,5.41208,0,0,0-1.139-.8015A10.55113,10.55113,0,0,0,55.6732,10.756a14.1846,14.1846,0,0,0-2.108-.54615A13.15092,13.15092,0,0,0,51.19134,10Z" fill="#010101"/><path d="M72.47427.70833H.715V50.29167H72.47284L95.0357,25.49858ZM72.79452,0,96,25.49946,72.79452,51H0V0Z" fill="#010101"/></svg>