<svg xmlns="http://www.w3.org/2000/svg" viewBox="0 0 96 51"><polygon points="24 0 71.78 0 96 25.5 71.78 51 24 51 24 0" fill="#f36f21" fill-rule="evenodd"/><rect width="24" height="51" fill="#fff"/><path d="M56.152,10H41.767a2.38434,2.38434,0,0,0-1.589.555A2.22772,2.22772,0,0,0,39.5,12.344v27.2182a1.08288,1.08288,0,0,0,.24817.703,1.559,1.559,0,0,0,.69019.44312,4.83732,4.83732,0,0,0,1.05366.22027,16.98672,16.98672,0,0,0,3.11222.00011,5.04109,5.04109,0,0,0,1.05-.21875,1.45588,1.45588,0,0,0,.70575-.45866l.09888-.1537a1.13544,1.13544,0,0,0,.12808-.53534l-.0017-10.7669h8.95234a1.02486,1.02486,0,0,0,.643-.21816,1.45637,1.45637,0,0,0,.42256-.59307,3.25089,3.25089,0,0,0,.21957-.87763,11.7203,11.7203,0,0,0,0-2.42371,2.922,2.922,0,0,0-.22452-.86525,1.37743,1.37743,0,0,0-.43347-.55876l-.143-.08508a1.08589,1.08589,0,0,0-.48416-.10955H46.58529V15.82483H56.152a.99892.99892,0,0,0,.65516-.23974,1.61235,1.61235,0,0,0,.40546-.56046,2.937,2.937,0,0,0,.22469-.87829A10.18409,10.18409,0,0,0,57.5,12.92412a10.517,10.517,0,0,0-.0625-1.23265,3.10418,3.10418,0,0,0-.22252-.89624,1.46007,1.46007,0,0,0-.42245-.57736A1.02425,1.02425,0,0,0,56.152,10Z" fill="#fff"/><path d="M11.37156,7.33054h-.00945L9.67239,12.39441h3.38889Zm.89551-2.31572a2.26345,2.26345,0,0,1,.50246.06331.48376.48376,0,0,1,.25933.15223.941.941,0,0,1,.13372.27616l3.69279,10.56287a3.21262,3.21262,0,0,1,.13912.52539.31927.31927,0,0,1-.07429.28963.60612.60612,0,0,1-.36063.11989c-.17154.01482-.40926.02291-.71047.02291-.31336,0-.55918-.00539-.73477-.01348a1.8767,1.8767,0,0,1-.40116-.05523.36384.36384,0,0,1-.19315-.11585.59639.59639,0,0,1-.09319-.19264l-.80366-2.3952h-4.487l-.75639,2.33054a.70822.70822,0,0,1-.09725.21554.3947.3947,0,0,1-.1945.13875,1.40888,1.40888,0,0,1-.37819.06871c-.16343.01212-.37684.01886-.64158.01886a5.99851,5.99851,0,0,1-.66454-.02829.49559.49559,0,0,1-.33227-.13337.35431.35431,0,0,1-.06483-.29906,3.11991,3.11991,0,0,1,.13777-.516L9.82907,5.47958a.88661.88661,0,0,1,.12967-.25326.45178.45178,0,0,1,.235-.14819,1.8208,1.8208,0,0,1,.44843-.06331q.22854-.01133.57568-.01418L11.39858,5Q11.94358,5,12.26707,5.01482Zm-.76584,14.04925a.75542.75542,0,0,1,.35928.08218,1.35548,1.35548,0,0,1,.31471.23979l3.03636,3.02835a.56144.56144,0,0,1,.0959.15627.29411.29411,0,0,1-.00406.198,1.002,1.002,0,0,1-.16208.28155,4.491,4.491,0,0,1-.36468.41357,4.36609,4.36609,0,0,1-.43358.392,1.26737,1.26737,0,0,1-.29985.17917.31182.31182,0,0,1-.21206.01482.44556.44556,0,0,1-.16208-.10642c-.72667-.718-.39305-.582-1.05084-1.30672V31.292a.20785.20785,0,0,1-.05538.13741.42443.42443,0,0,1-.181.11046,1.58918,1.58918,0,0,1-.34172.07409,5.16036,5.16036,0,0,1-1.07921,0,1.60839,1.60839,0,0,1-.34172-.07409.42437.42437,0,0,1-.181-.11046.20785.20785,0,0,1-.05538-.13741V22.63667c-.65779.72476-.32417.5887-1.05084,1.30672a.45236.45236,0,0,1-.16073.10642.31534.31534,0,0,1-.21341-.01482,1.2674,1.2674,0,0,1-.29986-.17917,4.69443,4.69443,0,0,1-.43357-.392,4.491,4.491,0,0,1-.36468-.41357,1.002,1.002,0,0,1-.16209-.28155.32639.32639,0,0,1-.00945-.198.40743.40743,0,0,1,.10265-.15627L10.82723,19.386a1.51579,1.51579,0,0,1,.29446-.23036A.74661.74661,0,0,1,11.50123,19.06407Zm1.11567,14.615a8.70933,8.70933,0,0,1,1.41282.10508,8.13475,8.13475,0,0,1,1.113.25865,4.39806,4.39806,0,0,1,.78881.326,2.01235,2.01235,0,0,1,.439.30445.76889.76889,0,0,1,.17964.36373,3.1902,3.1902,0,0,1,.05538.69512,3.7933,3.7933,0,0,1-.023.46072,1.36531,1.36531,0,0,1-.06483.30849.34089.34089,0,0,1-.10131.16166.23307.23307,0,0,1-.14317.0458.90251.90251,0,0,1-.38765-.1657,5.8714,5.8714,0,0,0-.71046-.35968,7.80549,7.80549,0,0,0-1.05759-.35968,5.50049,5.50049,0,0,0-1.42633-.1657,3.96521,3.96521,0,0,0-1.5695.30041,3.38652,3.38652,0,0,0-1.20077.84735A3.77159,3.77159,0,0,0,9.15508,38.122a5.1466,5.1466,0,0,0-.26744,1.69874,5.46252,5.46252,0,0,0,.27149,1.80112,3.67335,3.67335,0,0,0,.76179,1.30267,3.13588,3.13588,0,0,0,1.1778.79212,4.16288,4.16288,0,0,0,1.51818.26673,3.58689,3.58689,0,0,0,.80366-.0916,2.99424,2.99424,0,0,0,.73883-.27617v-2.763H11.897c-.11075,0-.1972-.0687-.258-.20745a1.879,1.879,0,0,1-.0932-.70456,3.49238,3.49238,0,0,1,.023-.43243,1.09315,1.09315,0,0,1,.07024-.28155.38472.38472,0,0,1,.11076-.15626.23165.23165,0,0,1,.14722-.04985H15.9315a.65124.65124,0,0,1,.26338.04985.56616.56616,0,0,1,.2026.15222.679.679,0,0,1,.13507.24383,1.10134,1.10134,0,0,1,.04593.32736v4.74191a1.12429,1.12429,0,0,1-.09725.48362.69439.69439,0,0,1-.39711.32735q-.29985.11922-.74288.24787-.4437.12933-.91847.22093-.47612.093-.96034.13876-.48624.04647-.97385.0458a7.47806,7.47806,0,0,1-2.56226-.40953,5.02611,5.02611,0,0,1-3.11739-3.08493,7.25886,7.25886,0,0,1-.41466-2.53666,7.341,7.341,0,0,1,.443-2.6296A5.57453,5.57453,0,0,1,8.09344,35.359a5.43425,5.43425,0,0,1,1.9612-1.24744A7.23441,7.23441,0,0,1,12.6169,33.67912Z" fill="#010101" fill-rule="evenodd"/><path d="M41.767,10.83594H56.152a.16721.16721,0,0,1,.11267.03764.69215.69215,0,0,1,.1718.25932,2.34724,2.34724,0,0,1,.1559.65674,9.72985,9.72985,0,0,1,.05661,1.13448,9.39943,9.39943,0,0,1-.05649,1.12176,2.18156,2.18156,0,0,1-.15314.62974.81848.81848,0,0,1-.18723.27582.14022.14022,0,0,1-.10012.03745H46.1615a.42178.42178,0,0,0-.42549.418V23.482a.42178.42178,0,0,0,.42549.418h9.37613a.20977.20977,0,0,1,.12951.03679.608.608,0,0,1,.15784.22967,2.15874,2.15874,0,0,1,.15331.61938,10.94124,10.94124,0,0,1,0,2.21743,2.4705,2.4705,0,0,1-.15827.6538.71291.71291,0,0,1-.1672.26433.16854.16854,0,0,1-.11519.03793H46.1615a.42178.42178,0,0,0-.42549.418V39.56218a.29007.29007,0,0,1-.05677.18749.71554.71554,0,0,1-.31082.17285,4.245,4.245,0,0,1-.86478.176,16.18243,16.18243,0,0,1-2.91292-.00033,4.05608,4.05608,0,0,1-.8583-.17441.78639.78639,0,0,1-.32325-.18516.25857.25857,0,0,1-.05819-.17647V12.344a1.45224,1.45224,0,0,1,.384-1.15687A1.52814,1.52814,0,0,1,41.767,10.83594ZM56.152,10H41.767a2.38434,2.38434,0,0,0-1.589.555A2.22772,2.22772,0,0,0,39.5,12.344v27.2182a1.08288,1.08288,0,0,0,.24817.703,1.559,1.559,0,0,0,.69019.44312,4.83732,4.83732,0,0,0,1.05366.22027,16.98672,16.98672,0,0,0,3.11222.00011,5.04109,5.04109,0,0,0,1.05-.21875,1.45588,1.45588,0,0,0,.70575-.45866l.09888-.1537a1.13544,1.13544,0,0,0,.12808-.53534l-.0017-10.7669h8.95234a1.02486,1.02486,0,0,0,.643-.21816,1.45637,1.45637,0,0,0,.42256-.59307,3.25089,3.25089,0,0,0,.21957-.87763,11.7203,11.7203,0,0,0,0-2.42371,2.922,2.922,0,0,0-.22452-.86525,1.37743,1.37743,0,0,0-.43347-.55876l-.143-.08508a1.08589,1.08589,0,0,0-.48416-.10955H46.58529V15.82483H56.152a.99892.99892,0,0,0,.65516-.23974,1.61235,1.61235,0,0,0,.40546-.56046,2.937,2.937,0,0,0,.22469-.87829A10.18409,10.18409,0,0,0,57.5,12.92412a10.517,10.517,0,0,0-.0625-1.23265,3.10418,3.10418,0,0,0-.22252-.89624,1.46007,1.46007,0,0,0-.42245-.57736A1.02425,1.02425,0,0,0,56.152,10Z" fill="#010101"/><path d="M72.47427.70833H.715V50.29167H72.47284L95.0357,25.49858ZM72.79452,0,96,25.49946,72.79452,51H0V0Z" fill="#010101"/></svg>