<svg id="Layer_1" data-name="Layer 1" xmlns="http://www.w3.org/2000/svg" viewBox="0 0 16 16"><g id="Lidl_Logo_115x115px_RGB"><rect width="16" height="16" style="fill:#fff"/><rect x="0.50068" y="0.50068" width="15.00003" height="15.00003" style="fill:#0050aa"/><path d="M8,.89755a7.10315,7.10315,0,1,0,7.10248,7.10514A7.10521,7.10521,0,0,0,8,.89755Z" style="fill:#e60a14;fill-rule:evenodd"/><path d="M8,1.34751a6.65319,6.65319,0,1,0,6.65252,6.65518A6.654,6.654,0,0,0,8,1.34751Z" style="fill:#fff000;fill-rule:evenodd"/><polygon points="10.924 6.766 10.924 7.217 11.275 7.217 11.275 8.784 10.924 8.784 10.924 9.238 13.881 9.238 13.881 8.003 12.668 8.677 12.668 7.217 13.019 7.217 13.019 6.766 10.924 6.766" style="fill:#0050aa;fill-rule:evenodd"/><path d="M9.75873,6.76563h-1.995v.45128h.34908V8.78448H7.76377v.45394h1.995C11.23338,9.23842,11.248,6.76563,9.75873,6.76563ZM9.47867,8.46725H9.37912V7.53414h.08362C9.89942,7.53282,9.89942,8.46858,9.47867,8.46725Z" style="fill:#0050aa;fill-rule:evenodd"/><polygon points="7.587 8.187 6.413 7.014 5.059 8.369 5.059 8.824 5.4 8.482 6.345 9.43 5.996 9.777 6.223 10.006 8.113 8.113 8.113 7.659 7.587 8.187" style="fill:#e60a14;fill-rule:evenodd"/><path d="M6.24,5.36a.744.744,0,1,1-.74463.7433A.7432.7432,0,0,1,6.24,5.36Z" style="fill:#e60a14;fill-rule:evenodd"/><polygon points="2.104 6.766 4.196 6.766 4.196 7.217 3.847 7.217 3.847 8.677 5.059 8.003 5.059 9.238 2.104 9.238 2.104 8.784 2.454 8.784 2.454 7.217 2.104 7.217 2.104 6.766" style="fill:#0050aa;fill-rule:evenodd"/></g></svg>