<svg id="Ebene_1" data-name="Ebene 1" xmlns="http://www.w3.org/2000/svg" viewBox="0 0 60 60"><g id="icons-_-store-locator-pin-_-locator-selected" data-name="icons-/-store-locator-pin-/-locator-selected"><path id="icon-color" d="M39.14838,46.45842l.09162.0017c6.04.72,12.97,2.35,12.97,6.04,0,6.22385-19.81595,6.5614-22.36195,6.579l-.14776.00078-.09029.00017-.0378,0L29.51969,59.08l-.14779-.00078C26.82509,59.06152,7,58.724,7,52.50012c0-3.67,6.9-5.31,12.9-6.03a.48853.48853,0,0,1,.55.44h0l.02.21a2.49254,2.49254,0,0,1-2.09,2.75c-5.28.81-7.69,2.02-8.18,2.63.95,1.29,7.89,3.42,19.4,3.42s18.45-2.14,19.4-3.42c-.49-.61-2.92-1.82-8.24-2.64a2.49843,2.49843,0,0,1-2.09-2.75h0l.02-.21a.49673.49673,0,0,1,.55-.44ZM30.01983,1.00006a17.76705,17.76705,0,0,1,17.69,17.75006c0,9.1-5.82,18.75-16.54,33.37h0l-.09449.11685a1.4979,1.4979,0,0,1-2.32551-.11685h0l-.45916-.62744c-8.81814-12.0713-14.21592-20.72731-15.67084-28.54256C10.52983,11.75012,18.61983.97012,30.01983,1.00006Z" style="fill:#353b42;fill-rule:evenodd"/></g></svg>