<svg id="Ebene_1" data-name="Ebene 1" xmlns="http://www.w3.org/2000/svg" viewBox="0 0 60 60"><g id="icons-_-store-locator-pin-_--myStore-default" data-name="icons-/-store-locator-pin-/--myStore-default"><path id="icon-color" d="M28.45966,52.12012h0a1.49783,1.49783,0,0,0,2.42,0h0c10.72-14.62,16.54-24.27,16.54-33.37a17.76705,17.76705,0,0,0-17.69-17.75006c-11.4-.02994-19.49,10.75006-17.4,21.95006C13.80966,30.90012,19.36966,39.72012,28.45966,52.12012Z" style="fill:#353b42;fill-rule:evenodd"/><path id="heart" d="M30.74377,31.08427l7.7757-8.27685a8.45245,8.45245,0,0,0,2.14019-5.68616v-.22859a7.58333,7.58333,0,0,0-2.486-5.69569,6.34683,6.34683,0,0,0-5.05608-1.5906l-.14953.01905c-.13084.01905-.26168.04762-.38317.07619a6.21738,6.21738,0,0,0-2.92524,1.57156,6.135,6.135,0,0,0-2.92523-1.57156c-.14019-.02857-.271-.05714-.40187-.07619l-.08411-.00953a6.3631,6.3631,0,0,0-5.10281,1.5906,7.58334,7.58334,0,0,0-2.486,5.69569v.22859A8.47032,8.47032,0,0,0,20.82788,22.836l7.74767,8.2578A1.50573,1.50573,0,0,0,30.74377,31.08427Z" style="fill:#fff;fill-rule:evenodd"/></g></svg>